<svg viewBox="0 0 22 22" xmlns="http://www.w3.org/2000/svg">
    <path d="M14.8864 4.74909C16.5391 6.54909 16.5391 9.04454 14.8864 10.6973L13.5118 9.31454C14.1991 8.34909 14.1991 7.09727 13.5118 6.13181L14.8864 4.74909ZM17.5945 2C20.8182 5.31363 20.7854 10.2718 17.5945 13.4545L16.2609 12.1209C18.5273 9.51908 18.5273 5.80454 16.2609 3.33364L17.5945 2ZM12.1127 12.44C13.7082 12.98 15.0909 13.8636 15.0909 15.0909V19.1818H2V15.0909C2 13.8636 3.38273 12.98 4.98636 12.44L5.49363 13.4545L5.68181 13.8636C4.45454 14.24 3.55454 14.78 3.55454 15.0909V17.6273H7.00727L7.72727 13.4791L6.95818 11.9409C7.46545 11.8836 7.99727 11.8427 8.54545 11.8427C9.09363 11.8427 9.62545 11.8836 10.1327 11.9409L9.36363 13.4791L10.0836 17.6273H13.5364V15.0909C13.5364 14.78 12.6364 14.24 11.4091 13.8636L11.5973 13.4545L12.1127 12.44ZM8.54545 6.09091C7.64545 6.09091 6.90909 6.82727 6.90909 7.72727C6.90909 8.62727 7.64545 9.36363 8.54545 9.36363C9.44545 9.36363 10.1818 8.62727 10.1818 7.72727C10.1818 6.82727 9.44545 6.09091 8.54545 6.09091ZM8.54545 11C6.73727 11 5.27272 9.53545 5.27272 7.72727C5.27272 5.91909 6.73727 4.45454 8.54545 4.45454C10.3536 4.45454 11.8182 5.91909 11.8182 7.72727C11.8182 9.53545 10.3536 11 8.54545 11Z"/>
</svg>
