<svg viewBox="0 0 24 24" xmlns="http://www.w3.org/2000/svg">
<path fill-rule="evenodd" clip-rule="evenodd" d="M17.7261 7.39499V3.99999H3.09077V18H11.1315C11.42 18.6696 11.8002 19.3363 12.2672 20H3.09077C2.94441 20 2.80851 19.99 2.67261 19.97C2.26491 19.89 1.89903 19.69 1.61678 19.42C1.42861 19.23 1.2718 19.02 1.16726 18.78C1.06272 18.54 1 18.27 1 18V3.99999C1 3.71999 1.06272 3.45999 1.16726 3.22999C1.2718 2.98999 1.42861 2.77 1.61678 2.59C1.89903 2.32 2.26491 2.12 2.67261 2.04C2.80851 2.01 2.94441 2 3.09077 2H7.46047C7.89953 0.839999 9.04946 0 10.4085 0C11.7675 0 12.9174 0.839999 13.3564 2H17.7261C18.8761 2 19.8169 2.89999 19.8169 3.99999V7.71659C19.1256 7.50312 18.4172 7.39499 17.7277 7.39499H17.7261ZM11.1925 2.5C11.1925 2.09 10.8371 1.75 10.4085 1.75C9.97985 1.75 9.62442 2.09 9.62442 2.5C9.62442 2.90999 9.97985 3.24999 10.4085 3.24999C10.8371 3.24999 11.1925 2.90999 11.1925 2.5Z" />
<path d="M15.6354 7.71756C15.378 7.79715 15.1231 7.89134 14.8724 7.99999H5.18154V5.99999H15.6354V7.71756Z" />
<path d="M10.9971 12C11.2909 11.2423 11.6948 10.5748 12.177 9.99998H5.18154V12H10.9971Z" />
<path d="M10.5191 14H5.18154V16H10.5491C10.4964 15.6497 10.4697 15.2986 10.4697 14.9467C10.4697 14.6211 10.4866 14.3054 10.5191 14Z" />
<path d="M17.7277 16.6471C18.7174 16.6471 19.5198 15.8241 19.5198 14.8088C19.5198 13.7936 18.7174 12.9706 17.7277 12.9706C16.738 12.9706 15.9356 13.7936 15.9356 14.8088C15.9356 15.8241 16.738 16.6471 17.7277 16.6471Z" />
<path fill-rule="evenodd" clip-rule="evenodd" d="M11.4554 14.9467C11.4554 15.2955 11.4863 15.6466 11.5481 16C11.6633 16.6588 11.8859 17.3255 12.216 18C12.3029 18.1776 12.3973 18.3558 12.4992 18.5345C13.5087 20.3055 15.2509 22.1286 17.7277 24C21.9122 20.8382 24 17.8143 24 14.9467C24 11.651 22.0463 9.55338 19.8169 8.74831C19.1303 8.50037 18.4176 8.37503 17.7277 8.37503H17.7261C16.2813 8.37542 14.7364 8.92552 13.5416 9.99998C13.3821 10.1434 13.2288 10.2963 13.0828 10.4584C12.8719 10.6925 12.6763 10.946 12.4992 11.2187C12.3401 11.4637 12.1959 11.7241 12.069 12C11.7949 12.5955 11.6013 13.2626 11.5116 14C11.4747 14.3037 11.4554 14.6193 11.4554 14.9467ZM17.7277 10.2133C15.9983 10.2133 13.2475 11.5 13.2475 14.9467C13.2475 16.9228 14.7887 19.239 17.7277 21.6746C20.6667 19.239 22.2079 16.932 22.2079 14.9467C22.2079 12.3454 20.641 10.9744 19.1288 10.4584C18.6374 10.2907 18.1518 10.2133 17.7277 10.2133Z" />
</svg>
