<svg viewBox="0 0 24 24" xmlns="http://www.w3.org/2000/svg">
<path d="M20.0004 8.68994V3.99994H15.3104L12.0004 0.689941L8.69043 3.99994H4.00043V8.68994L0.69043 11.9999L4.00043 15.3099V19.9999H8.69043L12.0004 23.3099L15.3104 19.9999H20.0004V15.3099L23.3104 11.9999L20.0004 8.68994ZM18.0004 14.4799V17.9999H14.4804L12.0004 20.4799L9.52043 17.9999H6.00043V14.4799L3.52043 11.9999L6.00043 9.51994V5.99994H9.52043L12.0004 3.51994L14.4804 5.99994H18.0004V9.51994L20.4804 11.9999L18.0004 14.4799ZM12.2904 6.99994C11.5504 6.99994 10.8404 7.16994 10.2104 7.45994C11.9304 8.24994 13.1304 9.98994 13.1304 11.9999C13.1304 14.0099 11.9304 15.7499 10.2104 16.5399C10.8404 16.8299 11.5504 16.9999 12.2904 16.9999C15.0504 16.9999 17.2904 14.7599 17.2904 11.9999C17.2904 9.23994 15.0504 6.99994 12.2904 6.99994Z" />
</svg>
