<svg viewBox="0 0 24 24" xmlns="http://www.w3.org/2000/svg">
<path fill-rule="evenodd" clip-rule="evenodd" d="M12 2C6.48 2 2 6.48 2 12C2 17.52 6.48 22 12 22C17.52 22 22 17.52 22 12C22 6.48 17.52 2 12 2ZM12 20C7.59 20 4 16.41 4 12C4 7.59 7.59 4 12 4C16.41 4 20 7.59 20 12C20 16.41 16.41 20 12 20Z" />
<path fill-rule="evenodd" clip-rule="evenodd" d="M13.4898 11.3801C13.9198 10.1601 13.6598 8.74008 12.6798 7.76008C11.5698 6.65008 9.88984 6.46008 8.57984 7.17008L10.9298 9.52008L9.51984 10.9301L7.16984 8.58008C6.45984 9.90008 6.64984 11.5701 7.75984 12.6801C8.73984 13.6601 10.1598 13.9201 11.3798 13.4901L14.7898 16.9001C14.9898 17.1001 15.2998 17.1001 15.4998 16.9001L16.8998 15.5001C17.0998 15.3001 17.0998 14.9901 16.8998 14.7901L13.4898 11.3801Z" />
</svg>
