<svg viewBox="0 0 24 24" xmlns="http://www.w3.org/2000/svg">
    <path d="M7.23453 12.9381L3.06453 8.76809L1.64453 10.1781L7.23453 15.7681L19.2345 3.76809L17.8245 2.35809L7.23453 12.9381Z"/>
    <path d="M15.856 13.5169V14.6003H16.9394V18.9336H18.0227V13.5169H15.856ZM16.9394 10.8086C17.6507 10.8086 18.3551 10.9487 19.0122 11.2209C19.6694 11.4931 20.2665 11.8921 20.7695 12.3951C21.2725 12.8981 21.6715 13.4952 21.9437 14.1524C22.2159 14.8096 22.356 15.5139 22.356 16.2253C22.356 17.6619 21.7854 19.0396 20.7695 20.0554C19.7537 21.0712 18.376 21.6419 16.9394 21.6419C16.228 21.6419 15.5237 21.5018 14.8665 21.2296C14.2093 20.9574 13.6122 20.5584 13.1092 20.0554C12.0934 19.0396 11.5227 17.6619 11.5227 16.2253C11.5227 14.7887 12.0934 13.4109 13.1092 12.3951C14.125 11.3793 15.5028 10.8086 16.9394 10.8086Z"/>
</svg>
