<svg viewBox="0 0 25 24" xmlns="http://www.w3.org/2000/svg">
<path d="M21.5 11.11V5C21.5 3.9 20.61 3 19.5 3H15.32C14.9 1.84 13.8 1 12.5 1C11.2 1 10.1 1.84 9.68 3H5.5C4.4 3 3.5 3.9 3.5 5V19C3.5 20.11 4.4 21 5.5 21H11.61C12.87 22.24 14.59 23 16.5 23C20.37 23 23.5 19.87 23.5 16C23.5 14.09 22.74 12.37 21.5 11.11ZM12.5 3C13.05 3 13.5 3.45 13.5 4C13.5 4.55 13.05 5 12.5 5C11.95 5 11.5 4.55 11.5 4C11.5 3.45 11.95 3 12.5 3ZM5.5 19V5H7.5V7H17.5V5H19.5V9.68C18.59 9.25 17.58 9 16.5 9H7.5V11H11.6C11 11.57 10.54 12.25 10.18 13H7.5V15H9.58C9.53 15.33 9.5 15.66 9.5 16C9.5 17.08 9.75 18.09 10.18 19H5.5ZM16.5 21C13.74 21 11.5 18.76 11.5 16C11.5 13.24 13.74 11 16.5 11C19.26 11 21.5 13.24 21.5 16C21.5 18.76 19.26 21 16.5 21ZM17 16.25L19.86 17.94L19.11 19.16L15.5 17V12H17V16.25Z" />
</svg>
