<svg viewBox="0 0 24 24" xmlns="http://www.w3.org/2000/svg">
<path d="M13.0001 10.0001C13.0001 9.45006 13.4501 9.00006 14.0001 9.00006H17.0001C17.5501 9.00006 18.0001 9.45006 18.0001 10.0001V11.0001H16.5001V10.5001H14.5001V11.5001L13.0001 10.0001ZM16.5001 13.5001L17.7101 14.7101C17.8901 14.5201 18.0001 14.2701 18.0001 14.0001V13.0001H16.5001V13.5001ZM8.83014 6.00006H19.0001V16.1701L20.9801 18.1501C20.9801 18.1001 21.0001 18.0501 21.0001 17.9901V6.00006C21.0001 4.90006 20.1001 4.00006 19.0001 4.00006H6.83014L8.83014 6.00006ZM19.7801 22.6101L17.1701 20.0001H5.00014C3.89014 20.0001 3.00014 19.1001 3.00014 18.0001V6.00006C3.00014 5.95006 3.02014 5.90006 3.02014 5.85006L1.39014 4.22006L2.80014 2.81006L21.1801 21.1901L19.7801 22.6101ZM7.50014 13.5001H9.50014V13.0001H10.1701L7.67014 10.5001H7.50014V13.5001ZM15.1701 18.0001L11.0001 13.8301V14.0001C11.0001 14.5501 10.5501 15.0001 10.0001 15.0001H7.00014C6.45014 15.0001 6.00014 14.5501 6.00014 14.0001V10.0001C6.00014 9.68006 6.16014 9.41006 6.40014 9.22006L5.00014 7.83006V18.0001H15.1701Z" />
</svg>
