<svg viewBox="0 0 24 24" xmlns="http://www.w3.org/2000/svg">
  <mask x="1" y="1" width="22" height="22">
    <rect x="1" y="1" width="22" height="22"/>
    <path d="m17.715 7.7143-1.0099 1.01 2.5612 2.5614h-10.194c-0.14124-0.6856-0.48028-1.3147-0.9752-1.8097-0.49492-0.49497-1.124-0.83404-1.8095-0.9753v-6.5007h-1.4284v6.5007c-0.8069 0.16429-1.5322 0.6024-2.0532 1.2402-0.52096 0.63773-0.80553 1.4359-0.80553 2.2595 0 0.8235 0.28457 1.6217 0.80553 2.2594 0.52095 0.6378 1.2463 1.0759 2.0532 1.2402v6.5h1.4284v-6.5007c0.68552-0.1413 1.3146-0.4803 1.8095-0.9753s0.83396-1.1241 0.9752-1.8097h10.194l-2.5612 2.5614 1.0099 1.01 4.2853-4.2857-4.2853-4.2857zm-12.142 6.4286c-0.42378 0-0.83804-0.1257-1.1904-0.3612-0.35236-0.2354-0.62699-0.5701-0.78916-0.9617-0.16218-0.3915-0.20461-0.8224-0.12193-1.2381 0.08267-0.4156 0.28674-0.7974 0.5864-1.0971 0.29965-0.2997 0.68144-0.5038 1.0971-0.58648 0.41564-0.08269 0.84646-0.04025 1.238 0.12198 0.39152 0.1621 0.72616 0.4368 0.96159 0.7892 0.23544 0.3524 0.36111 0.7667 0.36111 1.1905-5.7e-4 0.5681-0.22649 1.1129-0.6282 1.5146-0.4017 0.4017-0.94637 0.6277-1.5145 0.6283z"/>
  </mask>
  <path d="m17.715 7.7143-1.0099 1.01 2.5612 2.5614h-10.194c-0.14124-0.6856-0.48028-1.3147-0.9752-1.8097-0.49492-0.49497-1.124-0.83404-1.8095-0.9753v-6.5007h-1.4284v6.5007c-0.8069 0.16429-1.5322 0.6024-2.0532 1.2402-0.52096 0.63773-0.80553 1.4359-0.80553 2.2595 0 0.8235 0.28457 1.6217 0.80553 2.2594 0.52095 0.6378 1.2463 1.0759 2.0532 1.2402v6.5h1.4284v-6.5007c0.68552-0.1413 1.3146-0.4803 1.8095-0.9753s0.83396-1.1241 0.9752-1.8097h10.194l-2.5612 2.5614 1.0099 1.01 4.2853-4.2857-4.2853-4.2857zm-12.142 6.4286c-0.42378 0-0.83804-0.1257-1.1904-0.3612-0.35236-0.2354-0.62699-0.5701-0.78916-0.9617-0.16218-0.3915-0.20461-0.8224-0.12193-1.2381 0.08267-0.4156 0.28674-0.7974 0.5864-1.0971 0.29965-0.2997 0.68144-0.5038 1.0971-0.58648 0.41564-0.08269 0.84646-0.04025 1.238 0.12198 0.39152 0.1621 0.72616 0.4368 0.96159 0.7892 0.23544 0.3524 0.36111 0.7667 0.36111 1.1905-5.7e-4 0.5681-0.22649 1.1129-0.6282 1.5146-0.4017 0.4017-0.94637 0.6277-1.5145 0.6283z" fill="#16181F"/>
  <path d="m17.715 7.7143 0.2121-0.21213-0.2121-0.21216-0.2122 0.21216 0.2122 0.21213zm-1.0099 1.01-0.2122-0.21213-0.2121 0.21213 0.2121 0.21212 0.2122-0.21212zm2.5612 2.5614v0.3h0.7242l-0.5121-0.5121-0.2121 0.2121zm-10.194 0-0.29383 0.0605 0.04934 0.2395h0.24449v-0.3zm-2.7847-2.785h-0.3v0.24449l0.23945 0.04934 0.06055-0.29383zm0-6.5007h0.3v-0.3h-0.3v0.3zm-1.4284 0v-0.3h-0.3v0.3h0.3zm0 6.5007 0.05985 0.29397 0.24015-0.04889v-0.24508h-0.3zm0 6.9993h0.3v-0.2451l-0.24015-0.0489-0.05985 0.294zm0 6.5h-0.3v0.3h0.3v-0.3zm1.4284 0v0.3h0.3v-0.3h-0.3zm0-6.5007-0.06055-0.2938-0.23945 0.0493v0.2445h0.3zm2.7847-2.785v-0.3h-0.24449l-0.04934 0.2395 0.29383 0.0605zm10.194 0 0.2121 0.2121 0.5121-0.5121h-0.7242v0.3zm-2.5612 2.5614-0.2122-0.2121-0.2121 0.2121 0.2121 0.2121 0.2122-0.2121zm1.0099 1.01-0.2122 0.2121 0.2122 0.2122 0.2121-0.2122-0.2121-0.2121zm4.2853-4.2857 0.2121 0.2121 0.2121-0.2121-0.2121-0.2121-0.2121 0.2121zm-16.427 2.1429v0.3h3e-4l-3e-4 -0.3zm2.1427-2.1429 0.3 3e-4v-3e-4h-0.3zm9.7869-4.4978-1.0099 1.01 0.4243 0.42425 1.0099-1.01-0.4243-0.42425zm-1.0099 1.4342 2.5612 2.5614 0.4243-0.4242-2.5612-2.5614-0.4243 0.42425zm2.7734 2.0493h-10.194v0.6h10.194v-0.6zm-9.9003 0.2395c-0.15307-0.743-0.52051-1.4249-1.0569-1.9613l-0.42428 0.42425c0.45346 0.45347 0.7641 1.03 0.89351 1.6581l0.58766-0.121zm-1.0569-1.9613c-0.53638-0.53642-1.2182-0.9039-1.9611-1.057l-0.12109 0.58765c0.62809 0.12943 1.2045 0.44009 1.658 0.89359l0.42428-0.42425zm-1.7217-0.76317v-6.5007h-0.6v6.5007h0.6zm-0.3-6.8007h-1.4284v0.6h1.4284v-0.6zm-1.7284 0.3v6.5007h0.6v-6.5007h-0.6zm0.24014 6.2068c-0.87468 0.17808-1.6609 0.653-2.2257 1.3443l0.46468 0.37957c0.47719-0.58418 1.1416-0.98549 1.8807-1.136l-0.11971-0.58793zm-2.2257 1.3443c-0.56472 0.69132-0.87319 1.5566-0.87319 2.4493h0.6c0-0.7544 0.26067-1.4856 0.73787-2.0698l-0.46468-0.37957zm-0.87319 2.4493c0 0.8926 0.30847 1.7579 0.87319 2.4492l0.46468-0.3795c-0.4772-0.5842-0.73787-1.3154-0.73787-2.0697h-0.6zm0.87319 2.4492c0.56472 0.6914 1.351 1.1663 2.2257 1.3444l0.11971-0.588c-0.7391-0.1504-1.4035-0.5518-1.8807-1.1359l-0.46468 0.3795zm1.9855 1.0504v6.5h0.6v-6.5h-0.6zm0.3 6.8h1.4284v-0.6h-1.4284v0.6zm1.7284-0.3v-6.5007h-0.6v6.5007h0.6zm-0.23946-6.2069c0.74296-0.1531 1.4248-0.5206 1.9611-1.057l-0.42428-0.4242c-0.45346 0.4535-1.0299 0.7641-1.658 0.8936l0.12109 0.5876zm1.9611-1.057c0.53638-0.5364 0.90382-1.2183 1.0569-1.9613l-0.58766-0.121c-0.12941 0.6281-0.44005 1.2046-0.89351 1.6581l0.42428 0.4242zm0.76306-1.7218h10.194v-0.6h-10.194v0.6zm9.9819-0.5121-2.5612 2.5614 0.4243 0.4242 2.5612-2.5614-0.4243-0.4242zm-2.5612 2.9856 1.0099 1.01 0.4243-0.4242-1.0099-1.01-0.4243 0.4242zm1.4342 1.01 4.2853-4.2857-0.4242-0.4242-4.2854 4.2857 0.4243 0.4242zm4.2853-4.7099-4.2853-4.2857-0.4243 0.42425 4.2854 4.2857 0.4242-0.4242zm-16.639 2.055c-0.36444 0-0.7207-0.1081-1.0237-0.3106l-0.33336 0.4989c0.40169 0.2684 0.87396 0.4117 1.3571 0.4117v-0.6zm-1.0237-0.3106c-0.30302-0.2025-0.53921-0.4903-0.67868-0.8271l-0.55433 0.2296c0.18487 0.4464 0.49795 0.8279 0.89965 1.0964l0.33336-0.4989zm-0.67868-0.8271c-0.13947-0.3367-0.17596-0.7072-0.10486-1.0647l-0.58847-0.1171c-0.09425 0.4739-0.04588 0.9651 0.139 1.4114l0.55433-0.2296zm-0.10486-1.0647c0.0711-0.3575 0.2466-0.6859 0.50431-0.9436l-0.42429-0.4243c-0.34161 0.3417-0.57424 0.777-0.66849 1.2508l0.58847 0.1171zm0.50431-0.9436c0.2577-0.2577 0.58603-0.4332 0.94347-0.5043l-0.11707-0.58852c-0.47383 0.09426-0.90907 0.32693-1.2507 0.66852l0.42429 0.4243zm0.94347-0.5043c0.35743-0.0712 0.72792-0.0347 1.0646 0.1048l0.22963-0.5543c-0.44634-0.1849-0.93748-0.23328-1.4113-0.13902l0.11707 0.58852zm1.0646 0.1048c0.3367 0.1395 0.62449 0.3757 0.82697 0.6788l0.49889-0.3334c-0.2684-0.4017-0.64989-0.7148-1.0962-0.8997l-0.22963 0.5543zm0.82697 0.6788c0.20247 0.303 0.31055 0.6593 0.31055 1.0238h0.6c0-0.4831-0.14326-0.9554-0.41166-1.3572l-0.49889 0.3334zm0.31055 1.0235c-4.9e-4 0.4887-0.19482 0.9572-0.54034 1.3028l0.42428 0.4242c0.45789-0.4579 0.71541-1.0788 0.71606-1.7264l-0.6-6e-4zm-0.54034 1.3028c-0.34552 0.3455-0.814 0.5399-1.3026 0.5404l6e-4 0.6c0.64756-7e-4 1.2684-0.2582 1.7263-0.7162l-0.42428-0.4242z"/>
</svg>
