<svg viewBox="0 0 24 24" xmlns="http://www.w3.org/2000/svg">
<path d="M9.77609 1.05939C6.76016 1.447 4.09467 3.16204 2.49644 5.72664C0.951307 8.21691 0.584935 11.3603 1.51414 14.1426C2.87874 18.2151 6.69113 20.9656 10.9602 20.9656C11.592 20.9656 11.6451 20.9603 11.6186 20.87C11.6026 20.8222 11.5071 20.5514 11.4062 20.2753C11.3053 19.9992 11.1885 19.5957 11.1513 19.3886C11.1141 19.1762 11.061 19.001 11.0398 19.001C11.0186 19.001 10.9973 15.3904 10.9973 10.978V2.95496L11.3849 2.98682C13.5726 3.18328 15.1071 3.85762 16.5407 5.24346C18.0487 6.70894 18.8186 8.39744 18.9885 10.6116L19.0203 11.0682L19.4026 11.1373C19.615 11.1744 20.0133 11.2912 20.2894 11.3921C20.5655 11.493 20.8363 11.5886 20.8894 11.6045C20.9743 11.6311 20.9796 11.578 20.9796 10.9461C20.9796 5.9762 17.2681 1.73372 12.3354 1.08063C11.7248 0.99567 10.3336 0.985051 9.77609 1.05939Z" />
<path d="M17.0503 13.0806C17.0131 13.1231 16.9547 13.3886 16.9229 13.6753L16.8645 14.185L16.4291 14.408C16.1848 14.5302 15.8928 14.7054 15.776 14.8009L15.5636 14.9709L15.0592 14.7532C14.7565 14.6257 14.5069 14.5461 14.4485 14.5673C14.3317 14.6045 13.3335 16.2877 13.3335 16.447C13.3335 16.5107 13.4875 16.6647 13.7636 16.8717L14.199 17.1903L14.2043 17.9815L14.2096 18.7673L13.7742 19.0965C13.5246 19.2877 13.3335 19.4682 13.3335 19.516C13.3335 19.6753 14.3423 21.3797 14.4485 21.4063C14.5016 21.4222 14.7353 21.3532 14.9636 21.2523C15.5689 20.9868 15.537 20.9921 15.8184 21.1992C15.9618 21.3001 16.2538 21.47 16.4715 21.5762L16.8645 21.762L16.9229 22.293C16.9547 22.585 17.0131 22.8558 17.0503 22.9036C17.1512 23.0204 19.1795 23.0204 19.2804 22.9036C19.3176 22.8558 19.376 22.585 19.4078 22.293L19.4662 21.762L19.8592 21.5762C20.0768 21.47 20.3689 21.3001 20.5122 21.1992C20.7937 20.9868 20.7671 20.9868 21.383 21.2523C21.6061 21.3532 21.8291 21.4222 21.8822 21.4063C21.9777 21.3797 22.9441 19.7655 22.9866 19.5585C23.0025 19.4576 22.9335 19.3832 22.5618 19.1018L22.1211 18.7673L22.1264 17.9815L22.1317 17.1903L22.5406 16.8877C22.7636 16.7231 22.96 16.5372 22.976 16.4735C23.0131 16.3355 22.0468 14.647 21.8928 14.5779C21.8131 14.5408 21.6591 14.5886 21.2822 14.7532L20.7724 14.9762L20.5547 14.8009C20.4379 14.7054 20.1459 14.5302 19.9016 14.408L19.4662 14.185L19.4078 13.6753C19.376 13.3886 19.3176 13.1231 19.2804 13.0806C19.2273 13.0169 19.0308 13.0009 18.1653 13.0009C17.2999 13.0009 17.1034 13.0169 17.0503 13.0806ZM18.8662 16.3832C19.2114 16.5425 19.5724 16.8877 19.7423 17.2434C19.8645 17.493 19.891 17.6098 19.891 17.9655C19.891 18.3425 19.8698 18.4328 19.7158 18.7461C19.4078 19.3726 18.8662 19.7125 18.1653 19.7125C17.4804 19.7125 16.9547 19.3939 16.6202 18.7779C16.4556 18.47 16.4397 18.4063 16.445 17.9921C16.445 17.4664 16.5459 17.1797 16.8645 16.8293C17.2468 16.4045 17.6715 16.2293 18.245 16.2558C18.4733 16.2664 18.7122 16.3195 18.8662 16.3832Z" />
</svg>
