<svg viewBox="0 0 24 24" xmlns="http://www.w3.org/2000/svg">
<path d="M21.71 11.2901L12.71 2.29006C12.32 1.90006 11.69 1.90006 11.3 2.29006L8.20996 5.38006L9.61996 6.79006L12 4.42006L19.58 12.0001L17.2 14.3801L18.61 15.7901L21.7 12.7001C22.1 12.3301 22.1 11.7001 21.71 11.2901Z" />
<path d="M13 7.5V10.17L15.17 12.34L16.5 11L13 7.5Z" />
<path d="M1.38989 4.22006L5.37989 8.21006L2.28989 11.3001C1.89989 11.6901 1.89989 12.3201 2.28989 12.7101L11.2899 21.7101C11.6799 22.1001 12.3099 22.1001 12.6999 21.7101L15.7899 18.6201L19.7799 22.6101L21.1899 21.2001L2.80989 2.81006L1.38989 4.22006ZM8.02989 10.8501C8.01989 10.9001 7.98989 10.9501 7.98989 11.0001V15.0001H9.98989V12.8201L14.3699 17.2001L11.9999 19.5801L4.41989 12.0001L6.79989 9.62006L8.02989 10.8501Z" />
</svg>
