<svg width="19" viewBox="0 0 19 24" xmlns="http://www.w3.org/2000/svg">
<path d="M0 5.01562L1.96875 3L18 18.9844L15.9844 21L10.3594 15.375L4.73438 21H0.984375V17.25L6.60938 11.625L0 5.01562ZM18.7031 5.625C18.8906 5.8125 18.9844 6.04688 18.9844 6.32812C18.9844 6.57812 18.8906 6.79688 18.7031 6.98438L16.875 8.85938L13.125 5.10938L14.9531 3.28125C15.1406 3.09375 15.375 3 15.6562 3C15.9375 3 16.1719 3.09375 16.3594 3.28125L18.7031 5.625ZM10.125 8.10938L12.0469 6.1875L15.7969 9.9375L13.875 11.8594L10.125 8.10938Z" />
</svg>
