<svg viewBox="0 0 24 24" xmlns="http://www.w3.org/2000/svg">
    <path d="M19.025 18.487C19.025 18.197 19.0025 17.907 18.9575 17.6195C18.6775 15.8695 17.1175 14.4245 15.3525 14.2745C14.875 14.2345 14.3975 14.2595 13.92 14.247C13.8675 14.247 13.8025 14.2795 13.7675 14.2045C13.705 14.062 13.795 13.7745 13.925 13.687C14.915 13.0045 15.46 12.072 15.51 10.867C15.525 10.492 15.52 10.117 15.5125 9.74448C15.51 9.61448 15.55 9.57948 15.675 9.58448C15.9525 9.59448 16.23 9.57698 16.5075 9.59198C16.66 9.59948 16.6875 9.54698 16.6875 9.40698C16.68 8.51448 16.685 7.62448 16.685 6.73198C16.685 6.30448 16.6425 5.88198 16.5275 5.46948C15.8175 2.89698 13.21 1.44448 10.6525 2.19948C8.825 2.73948 7.4475 4.45948 7.3675 6.36448C7.325 7.38948 7.355 8.41698 7.345 9.44448C7.345 9.57448 7.395 9.59198 7.505 9.58948C7.795 9.58198 8.0875 9.58948 8.3775 9.58448C8.4875 9.58448 8.5225 9.61198 8.52 9.72448C8.515 10.092 8.51 10.462 8.52 10.8295C8.5575 12.012 9.0675 12.9495 10.0325 13.627C10.2125 13.7545 10.29 13.872 10.275 14.0895C10.265 14.232 10.2225 14.257 10.095 14.252C9.7325 14.2445 9.3725 14.242 9.01 14.252C7.925 14.287 6.9875 14.677 6.2175 15.447C5.405 16.257 5.015 17.247 5.01 18.3895C5.005 19.5395 5.005 20.6895 5 21.837H19.03C19.0275 20.7195 19.025 19.602 19.0225 18.4845L19.025 18.487ZM8.6825 8.42198C8.5625 8.42198 8.515 8.39948 8.515 8.26448C8.525 7.68948 8.51 7.11448 8.5225 6.53948C8.5675 4.74448 10.01 3.27448 11.8225 3.16448C13.5975 3.05698 15.2125 4.35698 15.4675 6.11698C15.575 6.84698 15.4925 7.58698 15.515 8.32198C15.5175 8.45698 15.42 8.41698 15.3525 8.41698C14.5525 8.41698 13.75 8.41698 12.95 8.41698H12.6C13.1925 7.62448 13.7625 6.86698 14.35 6.07948H12.015C12.015 5.08698 12.0225 4.75948 12.0225 4.09948C11.435 4.97948 10.365 6.34198 9.76 7.24948H11.965C11.5375 7.86948 11.4625 7.98448 11.2425 8.28698C11.1775 8.37698 11.1075 8.42198 10.99 8.42198C10.2225 8.41698 9.4525 8.41698 8.685 8.42198H8.6825ZM9.75 11.2995C9.6425 10.8945 9.6975 10.477 9.6875 10.067C9.685 9.91448 9.635 9.70698 9.715 9.61948C9.8075 9.51448 10.0175 9.58948 10.1775 9.58698C10.79 9.58198 11.405 9.58698 12.0175 9.58698C12.74 9.58698 13.4625 9.59198 14.1875 9.58448C14.325 9.58448 14.36 9.61948 14.355 9.75448C14.3375 10.1995 14.395 10.6495 14.3275 11.0895C14.19 11.967 13.6925 12.582 12.8725 12.9245C12.665 13.0095 12.585 13.1095 12.5975 13.342C12.62 13.8245 12.605 14.3095 12.6025 14.7945C12.6025 15.167 12.3575 15.422 12.0125 15.4195C11.6775 15.417 11.44 15.162 11.4375 14.7995C11.4375 14.302 11.4225 13.8045 11.4425 13.3095C11.45 13.0995 11.3725 13.0095 11.19 12.9345C10.44 12.6345 9.9575 12.0895 9.7525 11.307L9.75 11.2995ZM17.86 20.5295C17.86 20.657 17.815 20.677 17.7025 20.6745C17.025 20.6695 16.3475 20.667 15.6675 20.6745C15.53 20.6745 15.5125 20.622 15.5125 20.507C15.5175 19.8495 15.5075 19.1895 15.52 18.532C15.5225 18.3645 15.4725 18.3295 15.315 18.337C15.05 18.3495 14.785 18.3495 14.52 18.337C14.3675 18.3295 14.34 18.382 14.3425 18.522C14.35 19.1795 14.3425 19.8395 14.35 20.497C14.35 20.6445 14.3125 20.677 14.17 20.6745C13.4475 20.667 12.7225 20.672 12 20.672C11.2775 20.672 10.5675 20.667 9.85 20.6745C9.7125 20.6745 9.68 20.6395 9.68 20.5045C9.6875 19.8395 9.68 19.1745 9.6875 18.5095C9.6875 18.377 9.6575 18.3295 9.5175 18.337C9.24 18.347 8.9625 18.347 8.685 18.337C8.5525 18.332 8.51 18.3645 8.5125 18.5045C8.52 19.162 8.5125 19.822 8.52 20.4795C8.52 20.622 8.4975 20.6795 8.335 20.677C7.67 20.667 7.005 20.672 6.34 20.672C6.2575 20.672 6.1725 20.697 6.175 20.557C6.19 19.737 6.135 18.9145 6.1975 18.097C6.315 16.5895 7.535 15.4545 9.0475 15.4195C9.44 15.4095 9.835 15.4195 10.23 15.417C10.3275 15.417 10.375 15.447 10.4175 15.537C10.7375 16.212 11.275 16.582 12.0225 16.5795C12.7625 16.5795 13.2925 16.2095 13.615 15.547C13.64 15.4945 13.645 15.417 13.7375 15.4195C14.305 15.4345 14.8775 15.362 15.4375 15.4695C16.855 15.737 17.815 16.867 17.85 18.3045C17.8675 19.047 17.85 19.7895 17.8575 20.532L17.86 20.5295Z"/>
</svg>
