<svg viewBox="0 0 24 24" xmlns="http://www.w3.org/2000/svg">
    <path d="M10.425 12.9C10.425 13.0477 10.3959 13.194 10.3394 13.3305C10.2828 13.467 10.2 13.591 10.0955 13.6955C9.99103 13.8 9.86701 13.8828 9.73052 13.9394C9.59403 13.9959 9.44774 14.025 9.3 14.025C9.00163 14.025 8.71548 13.9065 8.5045 13.6955C8.29353 13.4845 8.175 13.1984 8.175 12.9C8.175 12.6016 8.29353 12.3155 8.5045 12.1045C8.71548 11.8935 9.00163 11.775 9.3 11.775C9.44774 11.775 9.59403 11.8041 9.73052 11.8606C9.86701 11.9172 9.99103 12 10.0955 12.1045C10.2 12.209 10.2828 12.333 10.3394 12.4695C10.3959 12.606 10.425 12.7523 10.425 12.9M14.7 11.775C14.4016 11.775 14.1155 11.8935 13.9045 12.1045C13.6935 12.3155 13.575 12.6016 13.575 12.9C13.575 13.1984 13.6935 13.4845 13.9045 13.6955C14.1155 13.9065 14.4016 14.025 14.7 14.025C14.9984 14.025 15.2845 13.9065 15.4955 13.6955C15.7065 13.4845 15.825 13.1984 15.825 12.9C15.825 12.6016 15.7065 12.3155 15.4955 12.1045C15.2845 11.8935 14.9984 11.775 14.7 11.775ZM21 12C21 14.3869 20.0518 16.6761 18.364 18.364C16.6761 20.0518 14.3869 21 12 21C10.8181 21 9.64778 20.7672 8.55585 20.3149C7.46392 19.8626 6.47177 19.1997 5.63604 18.364C3.94821 16.6761 3 14.3869 3 12C3 9.61305 3.94821 7.32387 5.63604 5.63604C7.32387 3.94821 9.61305 3 12 3C13.1819 3 14.3522 3.23279 15.4442 3.68508C16.5361 4.13738 17.5282 4.80031 18.364 5.63604C19.1997 6.47177 19.8626 7.46392 20.3149 8.55585C20.7672 9.64778 21 10.8181 21 12M10.794 4.908C12.054 6.996 14.34 8.4 16.95 8.4C17.364 8.4 17.769 8.355 18.156 8.292C16.896 6.204 14.61 4.8 12 4.8C11.586 4.8 11.181 4.845 10.794 4.908ZM5.178 9.723C6.717 8.85 7.905 7.428 8.472 5.727C6.933 6.6 5.745 8.022 5.178 9.723ZM19.2 12C19.2 11.298 19.092 10.623 18.903 9.984C18.273 10.119 17.625 10.2 16.95 10.2C14.133 10.2 11.622 8.904 9.966 6.879C9.021 9.183 7.14 10.992 4.8 11.874C4.8 11.91 4.8 11.955 4.8 12C4.8 15.969 8.031 19.2 12 19.2C15.969 19.2 19.2 15.969 19.2 12Z"/>
</svg>
