<svg viewBox="0 0 24 24" xmlns="http://www.w3.org/2000/svg">
    <path d="M12 3C7.05 3 3 7.05 3 12V21H21V12C21 7.05 16.95 3 12 3ZM12 4.8C14.61 4.8 16.896 6.204 18.156 8.292C17.769 8.355 17.364 8.4 16.95 8.4C14.34 8.4 12.054 6.996 10.794 4.908C11.181 4.845 11.586 4.8 12 4.8ZM8.472 5.727C7.905 7.428 6.717 8.85 5.178 9.723C5.745 8.022 6.933 6.6 8.472 5.727ZM4.8 11.874C7.14 10.992 9.021 9.183 9.966 6.879C11.622 8.904 14.133 10.2 16.95 10.2C17.625 10.2 18.273 10.119 18.903 9.984C19.092 10.623 19.2 11.298 19.2 12C19.2 15.969 15.969 19.2 12 19.2C8.031 19.2 4.8 15.969 4.8 12V11.874ZM4.8 19.2V17.4C5.313 18.075 5.925 18.687 6.6 19.2H4.8ZM19.2 19.2H17.4C18.075 18.687 18.687 18.075 19.2 17.4V19.2ZM13.575 12.9C13.575 12.279 14.079 11.775 14.7 11.775C15.321 11.775 15.825 12.279 15.825 12.9C15.825 13.521 15.321 14.025 14.7 14.025C14.079 14.025 13.575 13.521 13.575 12.9ZM8.175 12.9C8.175 12.279 8.679 11.775 9.3 11.775C9.921 11.775 10.425 12.279 10.425 12.9C10.425 13.521 9.921 14.025 9.3 14.025C8.679 14.025 8.175 13.521 8.175 12.9Z"/>
</svg>
