<svg viewBox="0 0 24 24" xmlns="http://www.w3.org/2000/svg">
    <path d="M15.5556 20.0889V17.4222H12.8889V15.6444H15.5556V12.9778H17.3333V15.6444H20V17.4222H17.3333V20.0889H15.5556ZM4 17.4444V15.6667H5.77778V17.4444H4ZM7.55556 17.4444V15.6667H11.1778C11.1333 15.9778 11.1147 16.2741 11.1218 16.5556C11.1295 16.837 11.1556 17.1333 11.2 17.4444H7.55556ZM4 13.8889V12.1111H5.77778V13.8889H4ZM7.55556 13.8889V12.1111H13.4667C13.1259 12.3481 12.8187 12.6148 12.5449 12.9111C12.2705 13.2074 12.0296 13.5333 11.8222 13.8889H7.55556ZM4 10.3333V8.55556H5.77778V10.3333H4ZM7.55556 10.3333V8.55556H18.2222V10.3333H7.55556ZM4 6.77778V5H5.77778V6.77778H4ZM7.55556 6.77778V5H18.2222V6.77778H7.55556Z"/>
</svg>
