<svg viewBox="0 0 24 24" xmlns="http://www.w3.org/2000/svg">
<path d="M18 13C18 16.31 15.31 19 12 19C8.69 19 6 16.31 6 13C6 9.69 8.69 7 12 7V11L17 6L12 1V5C7.58 5 4 8.58 4 13C4 17.42 7.58 21 12 21C16.42 21 20 17.42 20 13H18Z" />
<path d="M10.9 16V11.73H10.81L9.04004 12.36V13.05L10.05 12.74V16H10.9Z" />
<path d="M14.3198 11.7799C14.1398 11.7099 13.9498 11.6799 13.7298 11.6799C13.5098 11.6799 13.3198 11.7099 13.1398 11.7799C12.9598 11.8499 12.8098 11.9599 12.6898 12.1099C12.5698 12.2599 12.4598 12.4499 12.3998 12.6799C12.3398 12.9099 12.2998 13.1799 12.2998 13.4999V14.2399C12.2998 14.5599 12.3398 14.8399 12.4098 15.0599C12.4798 15.2799 12.5798 15.4799 12.7098 15.6299C12.8398 15.7799 12.9898 15.8899 13.1698 15.9599C13.3498 16.0299 13.5398 16.0599 13.7598 16.0599C13.9798 16.0599 14.1698 16.0299 14.3498 15.9599C14.5298 15.8899 14.6798 15.7799 14.7998 15.6299C14.9198 15.4799 15.0198 15.2899 15.0898 15.0599C15.1598 14.8299 15.1898 14.5599 15.1898 14.2399V13.4999C15.1898 13.1799 15.1498 12.8999 15.0798 12.6799C15.0098 12.4599 14.9098 12.2599 14.7798 12.1099C14.6498 11.9599 14.4898 11.8499 14.3198 11.7799ZM14.3298 14.3499C14.3298 14.5399 14.3198 14.6999 14.2898 14.8299C14.2598 14.9599 14.2298 15.0699 14.1798 15.1499C14.1298 15.2299 14.0698 15.2899 13.9898 15.3199C13.9098 15.3499 13.8298 15.3699 13.7398 15.3699C13.6498 15.3699 13.5598 15.3499 13.4898 15.3199C13.4198 15.2899 13.3498 15.2299 13.2998 15.1499C13.2498 15.0699 13.2098 14.9599 13.1798 14.8299C13.1498 14.6999 13.1398 14.5399 13.1398 14.3499V13.3799C13.1398 13.1899 13.1498 13.0299 13.1798 12.8999C13.2098 12.7699 13.2398 12.6699 13.2998 12.5899C13.3598 12.5099 13.4098 12.4499 13.4898 12.4199C13.5698 12.3899 13.6498 12.3699 13.7398 12.3699C13.8298 12.3699 13.9198 12.3899 13.9898 12.4199C14.0598 12.4499 14.1298 12.5099 14.1798 12.5899C14.2298 12.6699 14.2698 12.7699 14.2998 12.8999C14.3298 13.0299 14.3398 13.1899 14.3398 13.3799V14.3499H14.3298Z" />
</svg>
