<svg viewBox="0 0 24 24" xmlns="http://www.w3.org/2000/svg">
    <path d="M18.5246 9L17.4246 6.6L15.0246 5.5L17.4246 4.4L18.5246 2L19.6246 4.4L22.0246 5.5L19.6246 6.6L18.5246 9ZM20.5246 16L19.7246 14.3L18.0246 13.5L19.7246 12.7L20.5246 11L21.3246 12.7L23.0246 13.5L21.3246 14.3L20.5246 16ZM7.52461 22L7.22461 19.65C7.09128 19.6 6.96228 19.5333 6.83761 19.45C6.71228 19.3667 6.60794 19.2833 6.52461 19.2L4.32461 20.15L1.84961 15.8L3.72461 14.4V13.6L1.84961 12.2L4.32461 7.85L6.52461 8.8C6.60794 8.71667 6.71228 8.63333 6.83761 8.55C6.96228 8.46667 7.09128 8.4 7.22461 8.35L7.52461 6H12.5246L12.8246 8.35C12.9579 8.4 13.0873 8.46667 13.2126 8.55C13.3373 8.63333 13.4413 8.71667 13.5246 8.8L15.7246 7.85L18.1996 12.2L16.3246 13.6V14.4L18.1996 15.8L15.7246 20.15L13.5246 19.2C13.4413 19.2833 13.3373 19.3667 13.2126 19.45C13.0873 19.5333 12.9579 19.6 12.8246 19.65L12.5246 22H7.52461ZM10.0246 17C10.8579 17 11.5663 16.7083 12.1496 16.125C12.7329 15.5417 13.0246 14.8333 13.0246 14C13.0246 13.1667 12.7329 12.4583 12.1496 11.875C11.5663 11.2917 10.8579 11 10.0246 11C9.19128 11 8.48294 11.2917 7.89961 11.875C7.31628 12.4583 7.02461 13.1667 7.02461 14C7.02461 14.8333 7.31628 15.5417 7.89961 16.125C8.48294 16.7083 9.19128 17 10.0246 17V17ZM10.0246 15C9.74128 15 9.50361 14.904 9.31161 14.712C9.12028 14.5207 9.02461 14.2833 9.02461 14C9.02461 13.7167 9.12028 13.479 9.31161 13.287C9.50361 13.0957 9.74128 13 10.0246 13C10.3079 13 10.5456 13.0957 10.7376 13.287C10.9289 13.479 11.0246 13.7167 11.0246 14C11.0246 14.2833 10.9289 14.5207 10.7376 14.712C10.5456 14.904 10.3079 15 10.0246 15V15ZM9.27461 20H10.7746L10.9746 18.2C11.4579 18.0667 11.8706 17.896 12.2126 17.688C12.5539 17.4793 12.8913 17.2 13.2246 16.85L14.8746 17.6L15.5746 16.35L14.1246 15.25C14.2579 14.8667 14.3246 14.45 14.3246 14C14.3246 13.55 14.2579 13.1333 14.1246 12.75L15.5746 11.65L14.8746 10.4L13.2246 11.15C12.8913 10.8 12.5539 10.5207 12.2126 10.312C11.8706 10.104 11.4579 9.93333 10.9746 9.8L10.7746 8H9.27461L9.07461 9.8C8.59128 9.93333 8.17894 10.104 7.83761 10.312C7.49561 10.5207 7.15794 10.8 6.82461 11.15L5.17461 10.4L4.47461 11.65L5.92461 12.75C5.79128 13.1333 5.72061 13.55 5.71261 14C5.70394 14.45 5.77461 14.8667 5.92461 15.25L4.47461 16.35L5.17461 17.6L6.82461 16.85C7.15794 17.2 7.49561 17.4793 7.83761 17.688C8.17894 17.896 8.59128 18.0667 9.07461 18.2L9.27461 20Z"/>
</svg>
