<svg viewBox="0 0 24 24" xmlns="http://www.w3.org/2000/svg">
    <path d="M12.8131 19H8.68896C7.64575 19 6.72957 18.0703 6.72957 17.0116V10.7722C6.72957 10.269 6.92551 9.79588 7.28225 9.4366L10.5821 5.52978C10.8483 5.21438 11.2362 5.0224 11.6443 5.00183C12.0551 4.98126 12.4577 5.13485 12.7523 5.42282C13.0537 5.71353 13.2212 6.10709 13.2212 6.52808L13.2158 6.60213L13.1753 6.9093L11.951 9.26244H20.5129C20.9183 9.26244 21.2966 9.42563 21.5804 9.72045C21.8628 10.0153 22.0115 10.4047 21.9993 10.8175C21.975 11.6238 21.2912 12.2807 20.4737 12.2807H16.7711L16.6914 13.0376L14.5793 17.8495C14.3023 18.5379 13.5942 19 12.8145 19H12.8131ZM11.7172 6.09749C11.7105 6.09749 11.7037 6.09749 11.697 6.09749C11.5821 6.10298 11.4781 6.15509 11.4024 6.24422L8.05114 10.2073C7.94169 10.3142 7.81061 10.5007 7.81061 10.7722V17.0116C7.81061 17.4614 8.24573 17.903 8.68896 17.903H12.8131C13.1604 17.903 13.4672 17.7137 13.5793 17.4312L13.5874 17.412L15.6333 12.7483L15.7995 11.1823H20.4737C20.7088 11.1823 20.9129 10.9999 20.9183 10.7832C20.921 10.6708 20.8804 10.5638 20.8048 10.4843C20.7277 10.4034 20.6237 10.3595 20.5142 10.3595H10.1565L12.1294 6.56922L12.1388 6.49791C12.1294 6.36353 12.0632 6.27028 12.0051 6.21543C11.9253 6.13726 11.824 6.09612 11.7172 6.09612V6.09749ZM5.91878 19H2V10.2237H5.91878V19V19ZM3.08104 17.903H4.83774V11.3208H3.08104V17.903Z"/>
</svg>
