<svg viewBox="0 0 24 24" xmlns="http://www.w3.org/2000/svg">
<path d="M17.5002 15V13H18.6002L19.5002 15H21.0002L20.1002 12.9C20.6002 12.6 21.0002 12.1 21.0002 11.5V10.5C21.0002 9.69999 20.3002 8.99999 19.5002 8.99999H16.0002V13.86L17.1402 15H17.5002ZM17.5002 10.5H19.5002V11.5H17.5002V10.5ZM13.0002 10.5V10.86L14.5002 12.36V10.5C14.5002 9.69999 13.8002 8.99999 13.0002 8.99999H11.1402L12.6402 10.5H13.0002ZM2.5102 2.48999L1.4502 3.54999L6.9002 8.99999H6.5002V11H4.5002V8.99999H3.0002V15H4.5002V12.5H6.5002V15H8.0002V10.1L9.5002 11.6V15H12.9002L20.5002 22.6L21.5602 21.54L2.5102 2.48999Z" />
</svg>
