<svg viewBox="0 0 24 24" xmlns="http://www.w3.org/2000/svg">
<path d="M17.7295 12.0201L21.7095 8.04006C22.0995 7.65006 22.0995 7.02006 21.7095 6.63006L17.3695 2.29006C16.9795 1.90006 16.3495 1.90006 15.9595 2.29006L11.9795 6.27006L7.99953 2.29006C7.79953 2.10006 7.54953 2.00006 7.28953 2.00006C7.03953 2.00006 6.77953 2.10006 6.58953 2.29006L2.24953 6.63006C1.85953 7.02006 1.85953 7.65006 2.24953 8.04006L6.22953 12.0201L2.24953 16.0001C1.85953 16.3901 1.85953 17.0201 2.24953 17.4101L6.58953 21.7501C6.97953 22.1401 7.60953 22.1401 7.99953 21.7501L11.9795 17.7701L15.9595 21.7501C16.1595 21.9501 16.4095 22.0401 16.6695 22.0401C16.9295 22.0401 17.1795 21.9401 17.3795 21.7501L21.7195 17.4101C22.1095 17.0201 22.1095 16.3901 21.7195 16.0001L17.7295 12.0201V12.0201ZM11.9995 9.00006C12.5495 9.00006 12.9995 9.45006 12.9995 10.0001C12.9995 10.5501 12.5495 11.0001 11.9995 11.0001C11.4495 11.0001 10.9995 10.5501 10.9995 10.0001C10.9995 9.45006 11.4495 9.00006 11.9995 9.00006ZM7.28953 10.9601L3.65953 7.34006L7.28953 3.71006L10.9095 7.33006L7.28953 10.9601ZM9.99953 13.0001C9.44953 13.0001 8.99953 12.5501 8.99953 12.0001C8.99953 11.4501 9.44953 11.0001 9.99953 11.0001C10.5495 11.0001 10.9995 11.4501 10.9995 12.0001C10.9995 12.5501 10.5495 13.0001 9.99953 13.0001ZM11.9995 15.0001C11.4495 15.0001 10.9995 14.5501 10.9995 14.0001C10.9995 13.4501 11.4495 13.0001 11.9995 13.0001C12.5495 13.0001 12.9995 13.4501 12.9995 14.0001C12.9995 14.5501 12.5495 15.0001 11.9995 15.0001ZM13.9995 11.0001C14.5495 11.0001 14.9995 11.4501 14.9995 12.0001C14.9995 12.5501 14.5495 13.0001 13.9995 13.0001C13.4495 13.0001 12.9995 12.5501 12.9995 12.0001C12.9995 11.4501 13.4495 11.0001 13.9995 11.0001ZM16.6595 20.3401L13.0295 16.7201L16.6595 13.0901L20.2795 16.7101L16.6595 20.3401Z" />
</svg>
