<svg viewBox="0 0 24 24" xmlns="http://www.w3.org/2000/svg">
<path d="M6.03014 3.19997C7.15014 2.43997 8.51014 1.99997 10.0001 1.99997C13.9301 1.99997 17.0001 5.06997 17.0001 8.99997C17.0001 10.26 16.6201 11.65 15.9301 12.9C15.9101 12.94 15.8801 12.98 15.8501 13.03L14.3701 11.55C14.7701 10.69 15.0001 9.79997 15.0001 8.99997C15.0001 6.19997 12.8001 3.99997 10.0001 3.99997C9.08014 3.99997 8.24014 4.25997 7.50014 4.66997L6.03014 3.19997ZM17.2101 14.38L18.6401 15.81C20.1101 13.93 21.0001 11.57 21.0001 8.99997C21.0001 5.95997 19.7701 3.20997 17.7801 1.21997L16.3601 2.63997C17.9901 4.25997 19.0001 6.50997 19.0001 8.99997C19.0001 11.02 18.3301 12.88 17.2101 14.38ZM10.0001 6.49997C9.79014 6.49997 9.60014 6.52997 9.41014 6.57997L12.4201 9.58997C12.4701 9.39997 12.5001 9.20997 12.5001 8.99997C12.5001 7.61997 11.3801 6.49997 10.0001 6.49997ZM21.1901 21.19L2.81014 2.80997L1.39014 4.21997L3.52014 6.34997C3.19014 7.15997 3.00014 8.04997 3.00014 8.99997H5.00014C5.00014 8.63997 5.05014 8.28997 5.12014 7.94997L11.7301 14.56C10.8501 15.24 9.95014 15.97 9.46014 17.46C8.96014 18.96 8.46014 19.47 7.75014 19.84C7.56014 19.94 7.29014 20 7.00014 20C5.90014 20 5.00014 19.1 5.00014 18H3.00014C3.00014 20.21 4.79014 22 7.00014 22C7.57014 22 8.13014 21.88 8.64014 21.65C10.0001 20.94 10.7701 19.92 11.3701 18.1C11.6901 17.12 12.2701 16.67 13.0801 16.05C13.1101 16.03 13.1301 16.01 13.1601 15.99L19.7801 22.61L21.1901 21.19Z" />
</svg>
