<svg viewBox="0 0 24 24" xmlns="http://www.w3.org/2000/svg">
    <path d="M17.9981 18.6064C17.9981 18.839 17.9943 19.0711 17.9997 19.3033C18.0022 19.4156 17.9614 19.4649 17.8437 19.4645C17.3712 19.4616 16.8987 19.4612 16.4261 19.4645C16.3047 19.4653 16.2718 19.4066 16.2726 19.2996C16.2751 18.8418 16.2768 18.3837 16.2726 17.926C16.2714 17.7959 16.3323 17.7652 16.4515 17.766C16.9032 17.7701 17.3549 17.7717 17.8066 17.7652C17.9484 17.7631 18.0081 17.8033 18.0014 17.951C17.9914 18.1692 17.9981 18.3878 17.9981 18.6064Z"/>
    <path d="M10.9253 23C10.9287 21.989 10.932 20.9775 10.9345 19.9665C10.9358 19.4337 10.9354 18.9005 10.9341 18.3677C10.9341 18.2902 10.9241 18.2122 10.9153 18.0876C10.7998 18.1798 10.7226 18.2414 10.6593 18.2918C10.2564 17.8968 9.86098 17.5088 9.48019 17.1356C11.7315 14.9216 13.9942 12.6961 16.2418 10.4861C18.4873 12.694 20.7503 14.9191 23.0004 17.1315C22.6163 17.5084 22.2201 17.8968 21.8172 18.2922C21.7525 18.2422 21.6737 18.1811 21.5711 18.1015C21.5594 18.1786 21.5469 18.2225 21.5469 18.2664C21.5461 19.8041 21.5461 21.3413 21.5469 22.879C21.5469 22.9196 21.5561 22.9602 21.5611 23.0004L10.9253 23ZM16.243 12.8413C16.1859 12.8868 16.1404 12.9171 16.1025 12.9549C14.9914 14.0463 13.8795 15.1365 12.7746 16.2341C12.7071 16.3013 12.665 16.424 12.6645 16.5212C12.6579 18.0314 12.6641 19.5412 12.6554 21.0513C12.6541 21.2507 12.7275 21.2901 12.9081 21.2896C15.1244 21.2855 17.3412 21.2847 19.5575 21.2909C19.7652 21.2913 19.8311 21.2343 19.8298 21.0247C19.8211 19.542 19.8227 18.0593 19.8282 16.5765C19.8286 16.4125 19.7756 16.2976 19.6584 16.1832C18.5786 15.1291 17.5042 14.0693 16.4278 13.0119C16.3702 12.9553 16.3093 12.9024 16.2438 12.8421L16.243 12.8413Z"/>
    <path d="M9.67413 2C9.83595 2.02912 9.99736 2.05824 10.1592 2.08736C11.9305 2.40605 13.2639 3.76572 13.4445 5.51299C13.6768 7.75982 12.0677 9.45049 10.2101 9.78148C8.00834 10.1736 5.96427 8.72533 5.56972 6.60605C5.18351 4.5323 6.65411 2.45732 8.77117 2.09557C8.96093 2.06316 9.1507 2.03199 9.34047 2C9.45183 2 9.56277 2 9.67413 2ZM11.7349 5.93627C11.7349 4.71031 10.7201 3.70707 9.4902 3.71691C8.25066 3.72676 7.24009 4.72262 7.24093 5.93873C7.24176 7.09947 8.16224 8.15398 9.4927 8.15029C10.9299 8.14578 11.7645 6.98176 11.7349 5.93627Z"/>
    <path d="M2 14.3047C2.03128 14.2243 2.07049 14.146 2.09217 14.0631C2.54011 12.3404 3.96358 11.0805 5.75407 10.8286C5.93174 10.8036 6.11275 10.7892 6.29251 10.7892C8.4813 10.788 10.6701 10.788 12.8589 10.7954C13.0762 10.7962 13.2931 10.8483 13.5646 10.884C13.4807 10.9779 13.4365 11.0337 13.3861 11.0833C12.9594 11.5046 12.5369 11.9299 12.0998 12.3404C12.016 12.4192 11.8733 12.4766 11.7574 12.477C9.93688 12.4856 8.11636 12.4824 6.29584 12.484C4.91075 12.4852 3.69832 13.6743 3.6929 15.0335C3.69206 15.2727 3.69206 15.5118 3.69206 15.7509C3.69206 15.9412 3.79258 16.0365 3.9936 16.0368C4.56333 16.0368 5.13305 16.0368 5.70277 16.0368C6.49479 16.0368 7.28722 16.0368 8.07924 16.0368C8.14597 16.0368 8.21312 16.0421 8.31906 16.047C8.25149 16.1221 8.2102 16.1725 8.16391 16.2185C7.70304 16.6733 7.23801 17.1245 6.78173 17.5843C6.66996 17.6967 6.55318 17.7361 6.39594 17.7356C5.01335 17.7307 3.63034 17.7324 2.24774 17.7336C2.16516 17.7336 2.08258 17.7443 2 17.75C2 16.6016 2 15.4531 2 14.3047Z"/>
</svg>
