<svg viewBox="0 0 24 24" xmlns="http://www.w3.org/2000/svg">
    <path d="M13.1375 8.77522L11.6625 10.2627L10.2625 11.6627L7.00001 14.9127V17.0002H9.08751L12.3375 13.7377L15.225 10.8502L13.1375 8.77522ZM11.5625 12.9627L8.62501 15.8877H8.11251V15.3752L11.0375 12.4377L13.1375 10.3377L13.6625 10.8502L12.9625 11.5627L11.5625 12.9627ZM16.8375 8.46272L15.5875 7.21272C15.5345 7.14442 15.4661 7.08959 15.3879 7.05267C15.3097 7.01574 15.2239 6.99778 15.1375 7.00022C15.0653 6.9999 14.9938 7.01412 14.9272 7.04204C14.8606 7.06996 14.8004 7.111 14.75 7.16272L13.7375 8.17522L15.825 10.2627L16.8375 9.25022C16.9406 9.14507 16.9983 9.00371 16.9983 8.85647C16.9983 8.70924 16.9406 8.56787 16.8375 8.46272Z"/>
    <path d="M12 2C10.0222 2 8.08879 2.58649 6.4443 3.6853C4.79981 4.78412 3.51808 6.3459 2.76121 8.17316C2.00433 10.0004 1.8063 12.0111 2.19215 13.9509C2.578 15.8907 3.53041 17.6725 4.92894 19.0711C6.32746 20.4696 8.10929 21.422 10.0491 21.8078C11.9889 22.1937 13.9996 21.9957 15.8268 21.2388C17.6541 20.4819 19.2159 19.2002 20.3147 17.5557C21.4135 15.9112 22 13.9778 22 12C22 9.34783 20.9464 6.80429 19.0711 4.92893C17.1957 3.05357 14.6522 2 12 2ZM18.25 16.9L14.625 13.25L13.25 14.625L16.9 18.25C15.5278 19.3993 13.7898 20.0201 12 20C9.8803 19.9934 7.84929 19.1484 6.35043 17.6496C4.85157 16.1507 4.0066 14.1197 4 12C3.97993 10.2102 4.60064 8.47217 5.75 7.1L9.375 10.75L10.75 9.375L7.1 5.75C8.47218 4.60064 10.2102 3.97993 12 4C14.1197 4.00659 16.1507 4.85156 17.6496 6.35043C19.1484 7.84929 19.9934 9.88029 20 12C19.9407 13.7756 19.329 15.4885 18.25 16.9Z"/>
</svg>
