<svg viewBox="0 0 24 24" xmlns="http://www.w3.org/2000/svg">
    <path d="M14.2871 8.66322L15.3371 9.71317L5.2499 19.7751H4.22493V18.7627L14.2871 8.66322ZM18.2495 2.00108C17.9586 2.00392 17.6804 2.12058 17.4745 2.32607L15.4746 4.36346L19.6369 8.52573L21.6744 6.48834C21.7776 6.38608 21.8594 6.26439 21.9153 6.13031C21.9712 5.99622 22 5.8524 22 5.70713C22 5.56187 21.9712 5.41804 21.9153 5.28396C21.8594 5.14987 21.7776 5.02819 21.6744 4.92593L19.0745 2.32607C18.9675 2.21699 18.8387 2.13167 18.6966 2.07568C18.5545 2.01968 18.4021 1.99427 18.2495 2.00108ZM14.2871 5.55089L2 17.8377V22H6.16237L18.4495 9.71317L14.2871 5.55089Z"/>
    <path d="M9.49976 3.36399L8.13731 2.00156L5.74988 4.38893L3.37496 2.00156L2 3.36399L4.38742 5.75136L2 8.13873L3.37496 9.50116L5.74988 7.11379L8.13731 9.50116L9.49976 8.13873L7.12484 5.75136L9.49976 3.36399Z"/>
</svg>
