<svg viewBox="0 0 24 24" xmlns="http://www.w3.org/2000/svg">
    <path d="M11.0357 11.9999C11.0357 12.2556 11.1373 12.5009 11.3182 12.6817C11.499 12.8626 11.7443 12.9642 12 12.9642C12.2557 12.9642 12.501 12.8626 12.6818 12.6817C12.8627 12.5009 12.9643 12.2556 12.9643 11.9999C12.9643 11.7441 12.8627 11.4989 12.6818 11.318C12.501 11.1372 12.2557 11.0356 12 11.0356C11.7443 11.0356 11.499 11.1372 11.3182 11.318C11.1373 11.4989 11.0357 11.7441 11.0357 11.9999V11.9999ZM15.0535 11.9999C15.0535 12.2556 15.1551 12.5009 15.336 12.6817C15.5168 12.8626 15.7621 12.9642 16.0178 12.9642C16.2735 12.9642 16.5188 12.8626 16.6997 12.6817C16.8805 12.5009 16.9821 12.2556 16.9821 11.9999C16.9821 11.7441 16.8805 11.4989 16.6997 11.318C16.5188 11.1372 16.2735 11.0356 16.0178 11.0356C15.7621 11.0356 15.5168 11.1372 15.336 11.318C15.1551 11.4989 15.0535 11.7441 15.0535 11.9999ZM7.01792 11.9999C7.01792 12.2556 7.11951 12.5009 7.30035 12.6817C7.48119 12.8626 7.72645 12.9642 7.98219 12.9642C8.23794 12.9642 8.4832 12.8626 8.66404 12.6817C8.84488 12.5009 8.94647 12.2556 8.94647 11.9999C8.94647 11.7441 8.84488 11.4989 8.66404 11.318C8.4832 11.1372 8.23794 11.0356 7.98219 11.0356C7.72645 11.0356 7.48119 11.1372 7.30035 11.318C7.11951 11.4989 7.01792 11.7441 7.01792 11.9999V11.9999ZM20.3008 8.51243C19.8468 7.43365 19.1959 6.46536 18.3662 5.63367C17.5423 4.8068 16.5643 4.14954 15.4875 3.6991C14.3826 3.23504 13.2094 3 12 3H11.9598C10.7424 3.00603 9.5632 3.2471 8.45429 3.7212C7.38667 4.17626 6.41779 4.83469 5.60164 5.65979C4.78 6.48947 4.13514 7.45374 3.68917 8.5285C3.22712 9.64143 2.99409 10.8247 3.00011 12.0421C3.00693 13.4372 3.33699 14.8118 3.96439 16.0579V19.1114C3.96439 19.3565 4.06175 19.5915 4.23505 19.7648C4.40835 19.9381 4.6434 20.0355 4.88848 20.0355H7.94403C9.19014 20.6629 10.5647 20.993 11.9598 20.9998H12.002C13.2053 20.9998 14.3725 20.7667 15.4714 20.3107C16.5428 19.8656 17.5172 19.216 18.3401 18.3982C19.1698 17.5766 19.8227 16.6163 20.2787 15.5456C20.7528 14.4367 20.9939 13.2575 20.9999 12.0401C21.0059 10.8166 20.7689 9.62938 20.3008 8.51243V8.51243ZM17.2653 17.3114C15.8571 18.7056 13.9888 19.473 12 19.473H11.9658C10.7545 19.467 9.55115 19.1656 8.48844 18.5991L8.31969 18.5087H5.49115V15.6802L5.40075 15.5115C4.83424 14.4487 4.53291 13.2454 4.52688 12.034C4.51885 10.0312 5.28424 8.15083 6.68846 6.73455C8.09068 5.31827 9.96498 4.5348 11.9679 4.52677H12.002C13.0065 4.52677 13.9808 4.72163 14.8988 5.10734C15.7948 5.483 16.5984 6.0234 17.2894 6.71446C17.9785 7.40352 18.5209 8.20909 18.8966 9.10506C19.2863 10.0332 19.4812 11.0175 19.4771 12.034C19.4651 14.0349 18.6796 15.9092 17.2653 17.3114V17.3114Z"/>
</svg>
