<svg viewBox="0 0 24 24" xmlns="http://www.w3.org/2000/svg">
    <path d="M21 11C21 8.61305 20.0518 6.32387 18.364 4.63604C16.6761 2.94821 14.3869 2 12 2C9.61305 2 7.32387 2.94821 5.63604 4.63604C3.94821 6.32387 3 8.61305 3 11C3 14.92 5.51 18.24 9 19.48V22H11V19.94C11.6642 20.021 12.3358 20.021 13 19.94V22H15V19.48C18.49 18.24 21 14.92 21 11ZM12 18C8.14 18 5 14.86 5 11C5 7.14 8.14 4 12 4C15.86 4 19 7.14 19 11C19 14.86 15.86 18 12 18Z"/>
    <path d="M8 7H16V9H8V7ZM12.75 10L9.75 13L11 14.25L9.75 15.5L11.25 17L14.25 14L13 12.75L14.25 11.5L12.75 10Z"/>
</svg>
