<svg viewBox="0 0 24 24" xmlns="http://www.w3.org/2000/svg">
    <path d="M20.5714 4.85714H20.1529L22 3.01L20.99 2L2 20.99L3.01 22L5.86714 19.1429H20.5714C20.9501 19.1423 21.3132 18.9916 21.581 18.7238C21.8487 18.456 21.9994 18.093 22 17.7143V14.1429C22 13.9534 21.9247 13.7717 21.7908 13.6378C21.6568 13.5038 21.4752 13.4286 21.2857 13.4286C20.9068 13.4286 20.5435 13.2781 20.2756 13.0102C20.0077 12.7422 19.8571 12.3789 19.8571 12C19.8571 11.6211 20.0077 11.2578 20.2756 10.9898C20.5435 10.7219 20.9068 10.5714 21.2857 10.5714C21.4752 10.5714 21.6568 10.4962 21.7908 10.3622C21.9247 10.2283 22 10.0466 22 9.85714V6.28571C21.9996 5.90695 21.849 5.54381 21.5812 5.27598C21.3133 5.00815 20.9502 4.85752 20.5714 4.85714V4.85714ZM20.5714 9.23357C19.9581 9.39192 19.4148 9.74958 19.0269 10.2503C18.639 10.7511 18.4285 11.3666 18.4285 12C18.4285 12.6334 18.639 13.2489 19.0269 13.7497C19.4148 14.2504 19.9581 14.6081 20.5714 14.7664V17.7143H15.5714V15.5714H14.1429V17.7143H7.29571L14.1429 10.8671V14.1429H15.5714V9.43857L18.7243 6.28571H20.5714V9.23357ZM3.42857 9.23357V6.28571H14.1429V4.85714H3.42857C3.04981 4.85752 2.68666 5.00815 2.41884 5.27598C2.15101 5.54381 2.00038 5.90695 2 6.28571V9.85714C2 10.0466 2.07525 10.2283 2.20921 10.3622C2.34316 10.4962 2.52485 10.5714 2.71429 10.5714C3.09317 10.5714 3.45653 10.7219 3.72444 10.9898C3.99235 11.2578 4.14286 11.6211 4.14286 12C4.14286 12.3789 3.99235 12.7422 3.72444 13.0102C3.45653 13.2781 3.09317 13.4286 2.71429 13.4286C2.52485 13.4286 2.34316 13.5038 2.20921 13.6378C2.07525 13.7717 2 13.9534 2 14.1429V17.7143H3.42857V14.7664C4.0422 14.6083 4.58586 14.2507 4.97403 13.7499C5.36221 13.249 5.57286 12.6333 5.57286 11.9996C5.57286 11.366 5.36221 10.7503 4.97403 10.2494C4.58586 9.74856 4.0422 9.39096 3.42857 9.23286V9.23357Z"/>
</svg>
