<svg viewBox="0 0 24 24" xmlns="http://www.w3.org/2000/svg">
<path d="M17.9998 24H11.4498C10.3698 24 9.30977 23.55 8.55977 22.77L1.25977 15.16L3.32977 13.33C3.94977 12.78 4.85977 12.67 5.58977 13.06L7.99977 14.34V4.79001C7.99977 3.41001 9.11977 2.29001 10.4998 2.29001C10.6698 2.29001 10.8398 2.31001 11.0098 2.34001C11.0998 1.04001 12.1798 0.0100098 13.4998 0.0100098C14.3598 0.0100098 15.1098 0.44001 15.5598 1.10001C15.8498 0.98001 16.1698 0.92001 16.4998 0.92001C17.8798 0.92001 18.9998 2.04001 18.9998 3.42001V3.70001C19.1598 3.67001 19.3298 3.65001 19.4998 3.65001C20.8798 3.65001 21.9998 4.77001 21.9998 6.15001V20C21.9998 22.21 20.2098 24 17.9998 24ZM4.13977 15.28L9.99977 21.38C10.3798 21.77 10.8998 22 11.4398 22H17.9998C19.0998 22 19.9998 21.1 19.9998 20V6.15001C19.9998 5.87001 19.7798 5.65001 19.4998 5.65001C19.2198 5.65001 18.9998 5.87001 18.9998 6.15001V12H16.9998V3.42001C16.9998 3.14001 16.7798 2.92001 16.4998 2.92001C16.2198 2.92001 15.9998 3.14001 15.9998 3.42001V12H13.9998V2.51001C13.9998 2.23001 13.7798 2.01001 13.4998 2.01001C13.2198 2.01001 12.9998 2.23001 12.9998 2.51001V12H10.9998V4.79001C10.9998 4.51001 10.7798 4.29001 10.4998 4.29001C10.2198 4.29001 9.99977 4.52001 9.99977 4.79001V17.66L4.64977 14.83L4.13977 15.28V15.28Z" />
</svg>
