<svg viewBox="0 0 24 24" xmlns="http://www.w3.org/2000/svg">
    <path d="m5.7891 2c0.07461 0.01875 0.14883 0.03867 0.22344 0.05664 1.5 0.35977 2.2141 1.9875 1.4621 3.3336-0.01875 0.03399-0.03594 0.06875-0.06602 0.12657 1.0238 0.71054 1.5809 1.6852 1.6219 2.9559h-1.5438c-0.12149-1.3891-1.193-1.9856-2.0621-1.9367-0.9418 0.05312-1.7961 0.75937-1.8707 1.9484h-1.5539v-0.3125c0.01133-0.05 0.02617-0.0996 0.03359-0.15039 0.12149-0.82578 0.47618-1.5312 1.0902-2.0996 0.15547-0.14375 0.325-0.27265 0.49297-0.4121-0.02735-0.05274-0.05-0.09844-0.07461-0.14336-0.70586-1.2668-0.06211-2.8551 1.3266-3.2695 0.12305-0.03671 0.24883-0.06484 0.37344-0.09687h0.54687zm0.42813 2.2664c3.9e-4 -0.37969-0.31133-0.69688-0.69102-0.70235-0.38711-0.00586-0.71172 0.31328-0.71211 0.70078-3.9e-4 0.37969 0.31133 0.69688 0.69102 0.70274 0.38711 0.00586 0.71172-0.31367 0.71211-0.70117z"/>
    <path d="m2 14.93c0.10977-0.3856 0.18672-0.784 0.33633-1.1535 0.23437-0.5789 0.6414-1.0348 1.1512-1.3965 0.0418-0.0297 0.08047-0.0633 0.13398-0.1059-0.37343-0.6254-0.48242-1.2855-0.24726-1.9824 0.16367-0.48477 0.46484-0.86914 0.88906-1.1531 0.83828-0.56094 1.9602-0.48672 2.7211 0.16133 0.67695 0.57656 1.1539 1.7328 0.42773 2.9773 1.0223 0.7094 1.5777 1.684 1.6184 2.9539h-1.5453c-0.11485-1.3605-1.1555-1.9773-2.0422-1.9378-0.94375 0.0421-1.8133 0.7484-1.8894 1.9488h-1.5535v-0.3121zm4.2172-3.9047c7.8e-4 -0.3797-0.31094-0.6969-0.69024-0.7031-0.38711-0.0063-0.71211 0.3129-0.71289 0.7-7.8e-4 0.3797 0.31094 0.6968 0.69024 0.7031 0.38711 0.0062 0.71211-0.3129 0.71289-0.7z"/>
    <path d="m2 21.688c0.10977-0.3855 0.18672-0.784 0.33633-1.1535 0.23437-0.5789 0.6414-1.0348 1.1512-1.3965 0.0418-0.0297 0.08047-0.0633 0.13398-0.1059-0.37343-0.6253-0.48242-1.2851-0.24765-1.982 0.16367-0.4848 0.46445-0.8691 0.88906-1.1531 0.83789-0.5609 1.9606-0.4871 2.7207 0.1605 0.68438 0.5828 1.1508 1.7426 0.42774 2.9778 1.0309 0.7144 1.5863 1.6996 1.6195 2.9652h-1.5625c-0.03281-1.098-0.88789-1.9523-1.9531-1.9523-1.0652 0-1.9203 0.8546-1.9531 1.9523h-1.5621v-0.3125zm4.2172-3.909c-0.00156-0.3797-0.31485-0.6949-0.69453-0.6988-0.38711-0.0039-0.71016 0.3172-0.7086 0.7043 0.00157 0.3797 0.31485 0.6949 0.69453 0.6988 0.38711 0.0039 0.71016-0.3172 0.7086-0.7043z"/>
    <path d="m22 8.4844h-11.393v-4.6875h11.393v4.6875zm-1.5754-1.5718h-4.3133v-1.5387h4.3133v1.5387zm-8.2578 7.7e-4h2.3586v-1.5383h-2.3586v1.5383z" clip-rule="evenodd" fill-rule="evenodd"/>
    <path d="m22 15.242h-11.393v-4.6875h11.393v4.6875zm-4.7352-3.1109v1.5382h-5.0926v-1.5382h5.0926zm1.5798-0.0036v1.5383h1.5773v-1.5383h-1.5773z" clip-rule="evenodd" fill-rule="evenodd"/>
    <path d="m10.594 22v-4.6875h11.406v4.6875h-11.406zm4.7355-1.5762v-1.5386h5.0926v1.5386h-5.0926zm-1.5796 0.0028v-1.5372h-1.5775v1.5372h1.5775z" clip-rule="evenodd" fill-rule="evenodd"/>
</svg>
