<svg viewBox="0 0 24 24" xmlns="http://www.w3.org/2000/svg">
    <path d="M9.52587 13.6837C9.93039 13.6837 10.3443 13.7229 10.7488 13.7817C10.937 13.1544 11.191 12.5663 11.5202 12.0272C10.7865 11.8998 10.0903 11.8214 9.52587 11.8214C7.01411 11.8214 2 13.125 2 15.742V18.6824H11.0969C10.8335 18.1041 10.6453 17.4768 10.5513 16.8201H3.78739V15.742C3.78739 15.1147 6.73189 13.6837 9.52587 13.6837Z"/>
    <path d="M9.52587 10.8412C11.6049 10.8412 13.2888 9.08674 13.2888 6.92061C13.2888 4.75447 11.6049 3 9.52587 3C7.44685 3 5.76293 4.75447 5.76293 6.92061C5.76293 9.08674 7.44685 10.8412 9.52587 10.8412ZM9.52587 4.9603C10.5607 4.9603 11.4073 5.84244 11.4073 6.92061C11.4073 7.99878 10.5607 8.88091 9.52587 8.88091C8.49106 8.88091 7.6444 7.99878 7.6444 6.92061C7.6444 5.84244 8.49106 4.9603 9.52587 4.9603Z"/>
    <path d="M17.6162 15.1343H16.1957V18.6432H17.6162V15.1343Z"/>
    <path d="M16.9106 10.5766C14.1072 10.5766 11.8213 12.9583 11.8213 15.8792C11.8213 18.8001 14.1072 21.1818 16.9106 21.1818C19.714 21.1818 22 18.8001 22 15.8792C22 12.9583 19.714 10.5766 16.9106 10.5766ZM16.9106 19.7116C14.8881 19.7116 13.2418 17.9963 13.2418 15.889C13.2418 13.7817 14.8881 12.0664 16.9106 12.0664C18.9332 12.0664 20.5795 13.7817 20.5795 15.889C20.5795 17.9963 18.9332 19.7116 16.9106 19.7116Z"/>
    <path d="M17.6162 13.1054H16.1957V14.5854H17.6162V13.1054Z"/>
</svg>
