<svg viewBox="0 0 24 24" xmlns="http://www.w3.org/2000/svg">
    <path d="M18.6447 4V14.3086H5.40703V4H3.75V15.9536H11.1973V18.4952L9.54652 16.8502L8.37356 18.019L12.0228 21.6552L15.672 18.019L14.499 16.8502L12.8482 18.4952V15.9598L20.2955 15.9536V4H18.6385H18.6447Z"/>
    <path d="M12.0228 12.2432C13.9529 12.2432 15.6968 11.3094 17.2111 9.46661L17.6393 8.94098L17.2111 8.41534C15.6968 6.57252 13.9467 5.63875 12.0228 5.63875C10.0989 5.63875 8.34874 6.57252 6.83444 8.41534L6.40622 8.94098L6.83444 9.46661C8.34874 11.3094 10.0989 12.2432 12.0228 12.2432ZM12.0228 7.29605C13.2702 7.29605 14.3997 7.83405 15.4672 8.94716C14.3997 10.0541 13.264 10.5983 12.0228 10.5983C10.7815 10.5983 9.64581 10.0603 8.57836 8.94716C9.64581 7.84023 10.7815 7.29605 12.0228 7.29605Z"/>
    <path d="M12.904 9.8191C13.1399 9.58411 13.2702 9.27491 13.2702 8.94716C13.2702 8.61941 13.1399 8.30403 12.904 8.07522C12.6682 7.84023 12.3579 7.71037 12.029 7.71037C11.7 7.71037 11.3835 7.84023 11.1539 8.07522C10.9181 8.31021 10.7877 8.61941 10.7877 8.94716C10.7877 9.27491 10.9181 9.59029 11.1539 9.8191C11.3897 10.0541 11.7 10.1839 12.029 10.1839C12.3579 10.1839 12.6744 10.0541 12.904 9.8191Z"/>
</svg>
