<svg viewBox="0 0 24 24" xmlns="http://www.w3.org/2000/svg">
    <path d="M12 15C12.9333 15 13.775 14.7707 14.525 14.312C15.275 13.854 15.8667 13.25 16.3 12.5C15.7167 12.0167 15.0583 11.6457 14.325 11.387C13.5917 11.129 12.8167 11 12 11C11.1833 11 10.4083 11.129 9.675 11.387C8.94167 11.6457 8.28333 12.0167 7.7 12.5C8.13333 13.25 8.725 13.854 9.475 14.312C10.225 14.7707 11.0667 15 12 15ZM12 10C12.55 10 13.021 9.804 13.413 9.412C13.8043 9.02067 14 8.55 14 8C14 7.45 13.8043 6.97933 13.413 6.588C13.021 6.196 12.55 6 12 6C11.45 6 10.9793 6.196 10.588 6.588C10.196 6.97933 10 7.45 10 8C10 8.55 10.196 9.02067 10.588 9.412C10.9793 9.804 11.45 10 12 10ZM12 19.35C14.0333 17.4833 15.5417 15.7873 16.525 14.262C17.5083 12.7373 18 11.3833 18 10.2C18 8.38333 17.4207 6.89567 16.262 5.737C15.104 4.579 13.6833 4 12 4C10.3167 4 8.89567 4.579 7.737 5.737C6.579 6.89567 6 8.38333 6 10.2C6 11.3833 6.49167 12.7373 7.475 14.262C8.45833 15.7873 9.96667 17.4833 12 19.35ZM12 22C9.31667 19.7167 7.31267 17.5957 5.988 15.637C4.66267 13.679 4 11.8667 4 10.2C4 7.7 4.80433 5.70833 6.413 4.225C8.021 2.74167 9.88333 2 12 2C14.1167 2 15.979 2.74167 17.587 4.225C19.1957 5.70833 20 7.7 20 10.2C20 11.8667 19.3377 13.679 18.013 15.637C16.6877 17.5957 14.6833 19.7167 12 22Z"/>
</svg>
