<svg viewBox="0 0 24 24" xmlns="http://www.w3.org/2000/svg">
<path d="M21 5H23V19H21V5ZM17 5H19V19H17V5ZM14 5H2C1.45 5 1 5.45 1 6V18C1 18.55 1.45 19 2 19H14C14.55 19 15 18.55 15 18V6C15 5.45 14.55 5 14 5ZM13 17H3V7H13V17Z" />
<path d="M7.9998 11.89C9.07676 11.89 9.9498 11.0169 9.9498 9.93999C9.9498 8.86303 9.07676 7.98999 7.9998 7.98999C6.92285 7.98999 6.0498 8.86303 6.0498 9.93999C6.0498 11.0169 6.92285 11.89 7.9998 11.89Z" />
<path d="M11.8899 15.3499C11.8899 14.0499 9.29986 13.3999 7.99986 13.3999C6.69986 13.3999 4.10986 14.0499 4.10986 15.3499V15.9999H11.8899V15.3499Z" />
</svg>
