<svg viewBox="0 0 24 24" xmlns="http://www.w3.org/2000/svg">
<path d="M12 2C6.48 2 2 6.48 2 12C2 17.52 6.48 22 12 22C17.52 22 22 17.52 22 12C22 6.48 17.52 2 12 2ZM12 20C7.58 20 4 16.42 4 12C4 7.58 7.58 4 12 4C16.42 4 20 7.58 20 12C20 16.42 16.42 20 12 20Z" />
<path d="M13.5401 8.97001C13.3101 8.50001 12.7801 8.26 12.2801 8.44L9.0001 9.65V12H10.0001V10.35L11.5401 9.78L10.5801 14.67L7.8001 14.1L7.6001 15.08L11.3601 15.85L11.8801 13.21L13.0001 14.42V18H14.0001V14.03L12.6801 12.59L13.0901 10.24C13.9901 11.46 15.3001 12 16.0001 12V11C15.5901 11 14.3701 10.67 13.5401 8.97001Z" />
<path d="M13.5 8C14.0523 8 14.5 7.55228 14.5 7C14.5 6.44772 14.0523 6 13.5 6C12.9477 6 12.5 6.44772 12.5 7C12.5 7.55228 12.9477 8 13.5 8Z" />
</svg>
