<svg viewBox="0 0 24 24" xmlns="http://www.w3.org/2000/svg">
    <path d="M17.531 16.117L21.814 20.399L20.399 21.814L16.117 17.531C14.5237 18.8082 12.542 19.5029 10.5 19.5C5.532 19.5 1.5 15.468 1.5 10.5C1.5 5.532 5.532 1.5 10.5 1.5C15.468 1.5 19.5 5.532 19.5 10.5C19.5029 12.542 18.8082 14.5237 17.531 16.117ZM15.525 15.375C16.7941 14.0699 17.5029 12.3204 17.5 10.5C17.5 6.632 14.367 3.5 10.5 3.5C6.632 3.5 3.5 6.632 3.5 10.5C3.5 14.367 6.632 17.5 10.5 17.5C12.3204 17.5029 14.0699 16.7941 15.375 15.525L15.525 15.375ZM11.678 6.676C11.3831 6.8092 11.125 7.01195 10.9257 7.26686C10.7264 7.52176 10.5919 7.82121 10.5338 8.13951C10.4757 8.45781 10.4957 8.78546 10.5921 9.09433C10.6885 9.40321 10.8583 9.68409 11.0871 9.91289C11.3159 10.1417 11.5968 10.3115 11.9057 10.4079C12.2145 10.5043 12.5422 10.5243 12.8605 10.4662C13.1788 10.4081 13.4782 10.2736 13.7331 10.0743C13.9881 9.87502 14.1908 9.61687 14.324 9.322C14.5868 10.1756 14.5563 11.0926 14.2375 11.927C13.9186 12.7613 13.3297 13.4648 12.5646 13.9256C11.7994 14.3864 10.9021 14.5778 10.0155 14.4694C9.12896 14.3609 8.3042 13.9589 7.67264 13.3274C7.04108 12.6958 6.63906 11.871 6.53064 10.9845C6.42223 10.0979 6.61365 9.20058 7.0744 8.43544C7.53516 7.6703 8.23875 7.08138 9.07305 6.76252C9.90735 6.44366 10.8244 6.4132 11.678 6.676Z"/>
</svg>
