<svg viewBox="0 0 24 24" xmlns="http://www.w3.org/2000/svg">
<path d="M16.3819 12.6879H17.1498L22 17.5434L20.5517 19L15.6918 14.1446V13.3774L15.4294 13.1055C14.9148 13.5428 14.334 13.8944 13.7093 14.1477V11.9592C14.1124 11.6951 14.4716 11.3647 14.7703 10.9791C15.3384 10.2456 15.6582 9.35054 15.6835 8.42342C15.7087 7.4963 15.438 6.5852 14.9106 5.82195C14.3832 5.05871 13.6264 4.48291 12.7497 4.17788C11.873 3.87284 10.922 3.85438 10.0341 4.12518C9.14621 4.39598 8.36761 4.94198 7.81092 5.68419C7.25424 6.42639 6.94836 7.3263 6.93753 8.25371C6.93038 8.86663 7.05235 9.47056 7.29156 10.0276H5.24584C5.08593 9.47455 5.00243 8.89938 5 8.31805C4.99904 7.29994 5.24459 6.2967 5.71571 5.39392C6.18683 4.49115 6.86953 3.71562 7.70559 3.13351C8.54164 2.55139 9.50622 2.17997 10.5171 2.05092C11.5279 1.92186 12.555 2.03901 13.5107 2.39237C14.4664 2.74573 15.3223 3.32481 16.0056 4.08022C16.6888 4.83562 17.1789 5.74493 17.4343 6.73056C17.6896 7.7162 17.7025 8.74892 17.4719 9.74061C17.2412 10.7323 16.7739 11.6535 16.1098 12.4257L16.3819 12.6879Z" />
<path d="M3 18V19H6V18H3ZM3 12V13H8V12H3ZM8 20V19H12V18H8V17H7V20H8ZM5 14V15H3V16H5V17H6V14H5ZM12 16V15H7V16H12ZM9 14H10V13H12V12H10V11H9V14Z" />
</svg>
