<svg viewBox="0 0 25 24" xmlns="http://www.w3.org/2000/svg">
<path d="M13.5 19H14.5C14.7652 19 15.0196 19.1054 15.2071 19.2929C15.3946 19.4804 15.5 19.7348 15.5 20H22.5V22H15.5C15.5 22.2652 15.3946 22.5196 15.2071 22.7071C15.0196 22.8946 14.7652 23 14.5 23H10.5C10.2348 23 9.98043 22.8946 9.79289 22.7071C9.60536 22.5196 9.5 22.2652 9.5 22H2.5V20H9.5C9.5 19.7348 9.60536 19.4804 9.79289 19.2929C9.98043 19.1054 10.2348 19 10.5 19H11.5V17.34C8.57 16.13 6.5 13 6.5 9.67V5.67L12.5 3L18.5 5.67V9.67C18.5 13 16.43 16.13 13.5 17.34V19ZM12.5 5L8.5 6.69V10H12.5V5ZM12.5 10V16C14.41 15.53 16.5 13.06 16.5 11V10H12.5Z" />
</svg>
