<svg viewBox="0 0 24 24" xmlns="http://www.w3.org/2000/svg">
    <path d="M15.9098 17.0326L17.0727 18.1955C16.4444 18.6901 15.7694 19.0879 15.0476 19.3889C14.3258 19.6894 13.5706 19.8797 12.782 19.9599V18.3559C13.3434 18.2757 13.8879 18.122 14.4156 17.8947C14.9439 17.6675 15.4419 17.3801 15.9098 17.0326V17.0326ZM20 12.782C19.8931 13.6107 19.6894 14.3825 19.3889 15.0973C19.0879 15.8127 18.6901 16.4578 18.1955 17.0326L17.0727 15.9098C17.4202 15.4687 17.7009 14.984 17.9148 14.4557C18.1287 13.928 18.2757 13.3701 18.3559 12.782H20ZM18.1955 6.92732C18.7034 7.51545 19.1146 8.17043 19.429 8.89223C19.7428 9.61403 19.9332 10.3759 20 11.1779H18.3559C18.2757 10.5764 18.1287 10.0116 17.9148 9.48331C17.7009 8.95559 17.4202 8.47786 17.0727 8.05013L18.1955 6.92732ZM11.1779 4V5.60401C9.57394 5.83124 8.24394 6.54637 7.18797 7.74937C6.132 8.95238 5.60401 10.3626 5.60401 11.9799C5.60401 13.584 6.132 14.9875 7.18797 16.1905C8.24394 17.3935 9.57394 18.1153 11.1779 18.3559V19.9599C9.13283 19.7193 7.42536 18.8406 6.05554 17.3237C4.68518 15.8063 4 14.0251 4 11.9799C4 9.9081 4.68518 8.11696 6.05554 6.60652C7.42536 5.09607 9.13283 4.22723 11.1779 4V4ZM12.782 4C13.5706 4.06683 14.3258 4.25049 15.0476 4.55098C15.7694 4.852 16.4444 5.25647 17.0727 5.76441L15.9499 6.92732C15.4687 6.56642 14.9607 6.27235 14.4261 6.04511C13.8914 5.81788 13.3434 5.67084 12.782 5.60401V4ZM12 16.5514C11.8931 16.5514 11.7995 16.5246 11.7193 16.4712C11.6391 16.4177 11.5856 16.3375 11.5589 16.2306C11.345 15.6023 11.0812 15.0709 10.7673 14.6362C10.4529 14.202 10.1487 13.7877 9.85464 13.3931C9.56057 12.999 9.30981 12.5913 9.10236 12.17C8.89544 11.7492 8.79198 11.2314 8.79198 10.6165C8.79198 9.72097 9.1061 8.96254 9.73434 8.34125C10.3626 7.71943 11.1178 7.40852 12 7.40852C12.8822 7.40852 13.6374 7.71943 14.2657 8.34125C14.8939 8.96254 15.208 9.72097 15.208 10.6165C15.208 11.2314 15.1046 11.7492 14.8976 12.17C14.6902 12.5913 14.4394 12.999 14.1454 13.3931C13.8513 13.7877 13.5473 14.202 13.2335 14.6362C12.9191 15.0709 12.655 15.6023 12.4411 16.2306C12.4144 16.3375 12.3609 16.4177 12.2807 16.4712C12.2005 16.5246 12.1069 16.5514 12 16.5514V16.5514ZM12 11.7193C12.3074 11.7193 12.5681 11.6124 12.782 11.3985C12.9958 11.1846 13.1028 10.924 13.1028 10.6165C13.1028 10.3091 12.9958 10.0485 12.782 9.83459C12.5681 9.62072 12.3074 9.51378 12 9.51378C11.6926 9.51378 11.4319 9.62072 11.218 9.83459C11.0042 10.0485 10.8972 10.3091 10.8972 10.6165C10.8972 10.924 11.0042 11.1846 11.218 11.3985C11.4319 11.6124 11.6926 11.7193 12 11.7193Z"/>
</svg>
