<svg viewBox="0 0 25 24" xmlns="http://www.w3.org/2000/svg">
<path d="M21.5 11C21.5 16.55 17.66 21.74 12.5 23C7.34 21.74 3.5 16.55 3.5 11V5L12.5 1L21.5 5V11ZM12.5 21C16.25 20 19.5 15.54 19.5 11.22V6.3L12.5 3.18L5.5 6.3V11.22C5.5 15.54 8.75 20 12.5 21ZM15.3 11V9.5C15.3 8.1 13.9 7 12.5 7C11.1 7 9.7 8.1 9.7 9.5V11C9.1 11 8.5 11.6 8.5 12.2V15.7C8.5 16.4 9.1 17 9.7 17H15.2C15.9 17 16.5 16.4 16.5 15.8V12.3C16.5 11.6 15.9 11 15.3 11ZM14 11H11V9.5C11 8.7 11.7 8.2 12.5 8.2C13.3 8.2 14 8.7 14 9.5V11Z" />
</svg>
