<svg viewBox="0 0 24 24" xmlns="http://www.w3.org/2000/svg">
<path d="M20.5001 9.5C20.8601 9.5 21.2101 9.54 21.5501 9.61L23.6401 7C23.1901 6.66 18.7101 3 12.0001 3C5.28011 3 0.810107 6.66 0.360107 7L12.0001 21.5L15.5001 17.14V14.5C15.5001 11.7 17.7001 9.5 20.5001 9.5ZM23.0001 16V14.5C23.0001 13.1 21.9001 12 20.5001 12C19.1001 12 18.0001 13.1 18.0001 14.5V16C17.5001 16 17.0001 16.5 17.0001 17V21C17.0001 21.5 17.5001 22 18.0001 22H23.0001C23.5001 22 24.0001 21.5 24.0001 21V17C24.0001 16.5 23.5001 16 23.0001 16ZM22.0001 16H19.0001V14.5C19.0001 13.7 19.7001 13 20.5001 13C21.3001 13 22.0001 13.7 22.0001 14.5V16Z" />
</svg>
