<svg viewBox="0 0 24 24" xmlns="http://www.w3.org/2000/svg">
<path d="M9.00015 11.0001H12.6302L9.00015 15.2001V17.0001H15.0002V15.0001H11.3702L15.0002 10.8001V9.00006H9.00015V11.0001ZM16.0562 3.34606L17.3382 1.81106L21.9452 5.66106L20.6652 7.20106L16.0562 3.34606ZM3.33615 7.19006L2.05615 5.65406L6.66215 1.81006L7.94215 3.34606L3.33615 7.19006ZM12.0002 6.00006C15.8602 6.00006 19.0002 9.14006 19.0002 13.0001C19.0002 16.8601 15.8602 20.0001 12.0002 20.0001C8.14015 20.0001 5.00015 16.8601 5.00015 13.0001C5.00015 9.14006 8.14015 6.00006 12.0002 6.00006ZM12.0002 4.00006C7.03015 4.00006 3.00015 8.03006 3.00015 13.0001C3.00015 17.9701 7.03015 22.0001 12.0002 22.0001C16.9702 22.0001 21.0002 17.9701 21.0002 13.0001C21.0002 8.03006 16.9702 4.00006 12.0002 4.00006Z" />
</svg>
