<svg viewBox="0 0 26 26" fill="none" xmlns="http://www.w3.org/2000/svg">
<path d="M8.85759 5.01483C8.37558 5.0518 7.90208 5.19969 7.50939 5.43716C7.02313 5.73009 6.6035 6.19081 6.35116 6.70699C6.13 7.15918 6.03644 7.54453 6.02509 8.05645C6.01801 8.31809 6.02226 8.39346 6.04778 8.56978C6.17395 9.44572 6.62618 10.1709 7.35061 10.6615C7.60721 10.835 7.77591 10.9161 8.80372 11.364C9.94069 11.8588 10.2923 12.0266 10.4213 12.1333C10.6027 12.2812 10.6906 12.4788 10.6906 12.7348C10.6906 13.1173 10.4709 13.4315 10.125 13.5467C10.0796 13.5624 9.59761 13.568 7.56184 13.5737L5.05399 13.5808L5.02706 13.615C5.00154 13.6463 5.00012 13.6846 5.00012 14.6488C5.00012 15.6271 5.00012 15.6498 5.02848 15.6783C5.04407 15.6939 5.07101 15.7096 5.08802 15.7138C5.10645 15.7181 7.94745 15.7195 11.4009 15.7167C17.2516 15.7138 17.6911 15.711 17.83 15.6882C18.3673 15.6001 18.7997 15.4209 19.1938 15.1223C19.3511 15.0028 19.6318 14.7199 19.7481 14.562C20.6384 13.3547 20.5377 11.691 19.5128 10.67C19.1158 10.2747 18.8564 10.1325 17.253 9.43435C16.126 8.94376 16.0452 8.9011 15.8963 8.73758C15.5787 8.38493 15.6113 7.76636 15.9658 7.40802C16.0693 7.30422 16.1912 7.23028 16.3414 7.17909C16.4152 7.15491 16.5328 7.15349 18.7203 7.14638L21.0226 7.13927L21.0495 7.10514C21.075 7.07386 21.0764 7.03547 21.0764 6.07989C21.0764 5.53385 21.0722 5.07598 21.0679 5.06318C21.041 4.99492 21.4039 4.99919 14.9918 5.00061C11.6986 5.00203 8.9384 5.00772 8.85759 5.01483ZM13.3743 7.1862C13.4593 7.2317 13.533 7.30991 13.5742 7.39949C13.6053 7.47059 13.6082 7.48908 13.6011 7.61421C13.5968 7.68958 13.5827 7.8332 13.5699 7.93558C13.4763 8.66363 13.7358 9.48269 14.2546 10.1041C14.4304 10.3146 14.6402 10.5008 14.8898 10.67C15.1293 10.8307 15.3207 10.9232 16.3315 11.364C17.4685 11.8588 17.8201 12.0266 17.9491 12.1333C18.0554 12.2186 18.1419 12.348 18.1858 12.4831C18.2284 12.6125 18.2312 12.8371 18.1929 12.968C18.1263 13.1941 17.9788 13.386 17.8031 13.4799C17.6145 13.5794 17.7619 13.5737 15.3264 13.5737C12.8214 13.5737 13.0482 13.5851 12.9093 13.4472C12.8526 13.3889 12.8228 13.3462 12.8044 13.2908C12.7774 13.2083 12.7774 13.2069 12.8115 12.7689C12.8271 12.584 12.8256 12.53 12.8058 12.3679C12.7221 11.7109 12.44 11.1251 11.9906 10.6743C11.5951 10.279 11.33 10.134 9.73512 9.43861C8.60241 8.94519 8.51735 8.9011 8.36849 8.73758C7.97864 8.30387 8.13316 7.50614 8.6577 7.24734C8.87177 7.14211 8.71724 7.1478 11.1386 7.15065L13.3147 7.15349L13.3743 7.1862Z" fill="#205DF5"/>
<rect class="ss--status" x="5" y="17.7412" width="16.0763" height="3" />
<rect x="0.5" y="0.5" width="25" height="25" rx="2.5" stroke="#D7DCF0"/>
</svg>
