<svg viewBox="0 0 24 24" xmlns="http://www.w3.org/2000/svg">
    <path d="M23.0003 7.5L16.5303 6.96L14.0003 1L11.4703 6.96L5.00034 7.5L9.90034 11.77L8.44034 18.1L14.0003 14.74L19.5603 18.1L18.0903 11.77L23.0003 7.5ZM16.1403 12.23L16.5403 13.94L15.0303 13.03L14.0003 12.41L12.9703 13.03L11.4603 13.94L11.8503 12.23L12.1303 11.05L11.2203 10.26L9.88034 9.1L11.6403 8.95L12.8403 8.85L13.3103 7.74L14.0003 6.12L14.6903 7.74L15.1603 8.85L16.3603 8.95L18.1103 9.1L16.7803 10.26L15.8603 11.05L16.1403 12.23ZM1.16034 12C0.861338 11.5 0.989338 10.89 1.45034 10.59L4.18034 8.79L5.75034 10.15L2.55034 12.26C2.38034 12.37 2.19034 12.43 2.00034 12.43C1.68034 12.43 1.36034 12.27 1.16034 12V12ZM1.45034 20.16L7.31034 16.31L7.00034 17.76L6.66034 19.13L2.55034 21.84C2.38034 21.95 2.19034 22 2.00034 22C1.68034 22 1.36034 21.84 1.16034 21.55C1.01682 21.3265 0.966798 21.0557 1.02104 20.7957C1.07528 20.5357 1.22944 20.3074 1.45034 20.16V20.16ZM7.32034 11.5L8.24034 12.31L7.97034 13.5L2.55034 17.05C2.38034 17.16 2.19034 17.21 2.00034 17.21C1.68034 17.21 1.36034 17.06 1.16034 16.76C1.01656 16.5383 0.966355 16.2688 1.02069 16.0102C1.07503 15.7516 1.22949 15.5251 1.45034 15.38L7.32034 11.5V11.5Z"/>
</svg>
