<svg viewBox="0 0 24 24" xmlns="http://www.w3.org/2000/svg">
<path d="M20.0001 4H6.83008L8.83008 6H20.0001V17.17L21.7601 18.93C21.9101 18.65 22.0001 18.34 22.0001 18V6C22.0001 4.9 21.1001 4 20.0001 4Z" />
<path d="M18.0001 10H12.8301L14.8301 12H18.0001V10Z" />
<path d="M1.04004 3.86995L2.24004 5.06995C2.09004 5.34995 2.00004 5.65995 2.00004 5.99995V18C2.00004 19.1 2.90004 20 4.00004 20H17.17L20.13 22.9599L21.54 21.5499L2.45004 2.44995L1.04004 3.86995ZM4.00004 6.82995L7.17004 9.99995H6.00004V12H8.00004V10.83L11.17 14H6.00004V16H13.17L15.17 18H4.00004V6.82995Z" />
</svg>
