<svg viewBox="0 0 24 24" xmlns="http://www.w3.org/2000/svg">
    <path d="M10.5683 14.3581H2.67234V12.2974C3.6675 11.7376 4.34469 10.6831 4.34469 9.49033C4.34469 8.29755 3.67609 7.24304 2.67234 6.6833V4.62258H16.0545V6.6833C15.0594 7.24304 14.3822 8.29755 14.3822 9.49033C14.3822 9.57362 14.3925 9.65525 14.3994 9.73688C14.9219 9.57696 15.477 9.49033 16.0545 9.49033C16.0545 8.59741 16.8073 7.86775 17.7269 7.86775V4.62258C17.7269 3.72633 16.9775 3 16.0545 3H2.67234C1.74937 3 1 3.72633 1 4.62258V7.86775C1.92469 7.86775 2.67234 8.59408 2.67234 9.49033C2.67234 10.3866 1.92469 11.1129 1 11.1129V14.3581C1 15.251 1.75281 15.9807 2.67234 15.9807H10.6731C10.5906 15.6108 10.5442 15.2293 10.5442 14.8362C10.5442 14.6746 10.5545 14.5163 10.5683 14.3581Z"/>
    <path d="M10.3998 8.65405H8.65359V10.3466H10.3998V8.65405Z"/>
    <path d="M10.3998 12.0325H8.65359V13.725H10.3998V12.0325Z"/>
    <path d="M10.3998 5.26229H8.65359V6.95484H10.3998V5.26229Z"/>
    <path d="M18.0947 15.0344V13.0987H16.8503V15.0344H14.8548V16.2422H16.8503V18.178H18.0947V16.2422H20.0902V15.0344H18.0947Z"/>
    <path d="M22.5634 13.5451C22.2764 12.8971 21.8777 12.3257 21.3827 11.8442C20.8877 11.3645 20.2981 10.978 19.6295 10.6981C18.2906 10.1367 16.6544 10.1367 15.3155 10.6981C14.6469 10.978 14.0573 11.3628 13.5623 11.8442C13.0673 12.3257 12.6686 12.8971 12.3816 13.5451C12.0911 14.1965 11.945 14.9012 11.945 15.6375C11.945 16.3738 12.0911 17.0801 12.3816 17.7298C12.6686 18.3779 13.0656 18.951 13.5623 19.4324C14.0573 19.9122 14.6469 20.297 15.3155 20.5769C15.9858 20.8584 16.7111 21 17.4725 21C18.2339 21 18.9609 20.8567 19.6295 20.5769C20.2981 20.297 20.8877 19.9122 21.3827 19.4324C21.8777 18.9526 22.2764 18.3779 22.5634 17.7315C22.8522 17.0818 23 16.3771 23 15.6392C23 14.9012 22.8522 14.1965 22.5634 13.5468V13.5451ZM21.4256 15.6375C21.4256 16.7186 21.0492 17.6099 20.2775 18.3596C19.5144 19.0992 18.5708 19.474 17.4708 19.474C16.3708 19.474 15.4289 19.0992 14.6658 18.3596C13.9027 17.6199 13.5177 16.7203 13.5177 15.6375C13.5177 14.5547 13.8941 13.6651 14.6658 12.9154C15.4289 12.1758 16.3708 11.8009 17.4708 11.8009C18.5708 11.8009 19.5041 12.1658 20.2775 12.9154C21.0509 13.6667 21.4256 14.5563 21.4256 15.6375Z"/>
</svg>
