<svg viewBox="0 0 24 24" xmlns="http://www.w3.org/2000/svg">
<path d="M11.6104 12.9699C11.4504 12.7299 11.2504 12.5099 10.9904 12.3199C10.7404 12.1299 10.4304 11.9699 10.0604 11.8399C10.3604 11.6999 10.6304 11.5399 10.8604 11.3399C11.0904 11.1399 11.2804 10.9299 11.4304 10.6999C11.5804 10.4699 11.7004 10.2399 11.7704 9.9899C11.8504 9.7499 11.8804 9.4999 11.8804 9.2599C11.8804 8.7099 11.7904 8.2199 11.6004 7.7999C11.4204 7.3799 11.1604 7.0299 10.8204 6.7399C10.4904 6.4599 10.0904 6.2399 9.62043 6.0999C9.17043 5.9699 8.65043 5.8999 8.09043 5.8999C7.54043 5.8999 7.03043 5.9799 6.57043 6.1399C6.10043 6.3099 5.70043 6.5399 5.37043 6.8299C5.04043 7.1199 4.77043 7.4599 4.59043 7.8599C4.39043 8.2499 4.30043 8.6899 4.30043 9.1499H6.28043C6.28043 8.8899 6.33043 8.6599 6.42043 8.4599C6.51043 8.2599 6.64043 8.0799 6.80043 7.9399C6.97043 7.7999 7.16043 7.6899 7.38043 7.6099C7.60043 7.5299 7.84043 7.4899 8.11043 7.4899C8.72043 7.4899 9.17043 7.6499 9.47043 7.9599C9.77043 8.2699 9.91043 8.7099 9.91043 9.2799C9.91043 9.5499 9.87043 9.7999 9.79043 10.0199C9.71043 10.2399 9.58043 10.4299 9.41043 10.5899C9.24043 10.7499 9.03043 10.8699 8.78043 10.9599C8.53043 11.0499 8.23043 11.0899 7.89043 11.0899H6.72043V12.6599H7.90043C8.24043 12.6599 8.54043 12.6999 8.81043 12.7699C9.08043 12.8499 9.31043 12.9599 9.50043 13.1199C9.69043 13.2799 9.84043 13.4799 9.94043 13.7299C10.0404 13.9699 10.1004 14.2699 10.1004 14.5999C10.1004 15.2199 9.92043 15.6899 9.57043 16.0199C9.22043 16.3499 8.73043 16.5099 8.12043 16.5099C7.83043 16.5099 7.56043 16.4699 7.32043 16.3799C7.08043 16.2999 6.88043 16.1799 6.71043 16.0199C6.54043 15.8599 6.41043 15.6799 6.32043 15.4599C6.23043 15.2399 6.18043 14.9999 6.18043 14.7399H4.19043C4.19043 15.2899 4.30043 15.7699 4.51043 16.1899C4.72043 16.6099 5.01043 16.9599 5.37043 17.2399C5.73043 17.5199 6.14043 17.7299 6.61043 17.8699C7.08043 18.0099 7.57043 18.0799 8.09043 18.0799C8.66043 18.0799 9.18043 17.9999 9.67043 17.8499C10.1604 17.6999 10.5804 17.4699 10.9304 17.1699C11.2904 16.8699 11.5704 16.5099 11.7704 16.0699C11.9704 15.6399 12.0704 15.1399 12.0704 14.5899C12.0704 14.2999 12.0304 14.0099 11.9604 13.7299C11.8804 13.4799 11.7704 13.2199 11.6104 12.9699V12.9699ZM20.8704 14.3699C20.7304 14.0899 20.5204 13.8399 20.2404 13.6299C19.9604 13.4199 19.6304 13.2399 19.2304 13.0999C18.8304 12.9599 18.3804 12.8299 17.8804 12.7199C17.5304 12.6499 17.2404 12.5699 17.0104 12.4899C16.7804 12.4099 16.6004 12.3299 16.4604 12.2399C16.3204 12.1499 16.2304 12.0499 16.1804 11.9399C16.1304 11.8299 16.1004 11.6999 16.1004 11.5499C16.1004 11.3999 16.1304 11.2699 16.1904 11.1399C16.2504 11.0099 16.3404 10.8899 16.4604 10.7999C16.5804 10.6999 16.7304 10.6199 16.9104 10.5599C17.0904 10.4999 17.3104 10.4699 17.5504 10.4699C17.8004 10.4699 18.0204 10.5099 18.2104 10.5799C18.4004 10.6499 18.5604 10.7499 18.6904 10.8699C18.8204 10.9899 18.9104 11.1299 18.9804 11.2899C19.0404 11.4499 19.0804 11.6099 19.0804 11.7799H21.0304C21.0304 11.3899 20.9504 11.0299 20.7904 10.6899C20.6304 10.3499 20.4004 10.0599 20.1004 9.8099C19.8004 9.5599 19.4404 9.3699 19.0104 9.2199C18.5804 9.0699 18.0904 8.9999 17.5504 8.9999C17.0404 8.9999 16.5704 9.0699 16.1604 9.2099C15.7504 9.3499 15.3904 9.5399 15.1004 9.7799C14.8104 10.0199 14.5904 10.2999 14.4304 10.6199C14.2704 10.9399 14.2004 11.2699 14.2004 11.6299C14.2004 11.9899 14.2804 12.3099 14.4304 12.5899C14.5804 12.8699 14.8004 13.1099 15.0704 13.3199C15.3404 13.5299 15.6704 13.6999 16.0504 13.8499C16.4304 13.9899 16.8604 14.1099 17.3204 14.2099C17.7104 14.2899 18.0304 14.3799 18.2704 14.4699C18.5104 14.5599 18.7004 14.6599 18.8404 14.7599C18.9704 14.8599 19.0604 14.9799 19.1104 15.0999C19.1604 15.2199 19.1804 15.3499 19.1804 15.4899C19.1804 15.8099 19.0504 16.0599 18.7804 16.2599C18.5104 16.4599 18.1204 16.5499 17.6104 16.5499C17.3904 16.5499 17.1804 16.5299 16.9704 16.4699C16.7604 16.4199 16.5704 16.3399 16.4104 16.2299C16.2404 16.1199 16.1104 15.9699 16.0004 15.7899C15.8904 15.6099 15.8304 15.3799 15.8204 15.1199H13.9304C13.9304 15.4799 14.0104 15.8299 14.1704 16.1699C14.3304 16.5099 14.5604 16.8199 14.8704 17.0999C15.1804 17.3699 15.5604 17.5899 16.0204 17.7599C16.4804 17.9299 17.0004 18.0099 17.6004 18.0099C18.1304 18.0099 18.6104 17.9499 19.0404 17.8199C19.4704 17.6899 19.8404 17.5099 20.1504 17.2799C20.4604 17.0499 20.6904 16.7699 20.8604 16.4499C21.0304 16.1299 21.1104 15.7799 21.1104 15.3899C21.0904 14.9899 21.0204 14.6499 20.8704 14.3699V14.3699Z" />
</svg>
