<svg viewBox="0 0 24 24" xmlns="http://www.w3.org/2000/svg">
<path d="M17.8081 4.479H14.3465V3.2915C14.3465 2.63838 13.8273 2.104 13.1927 2.104H9.73114C9.09653 2.104 8.5773 2.63838 8.5773 3.2915V4.479H5.11576C4.48114 4.479 3.96191 5.01338 3.96191 5.6665V8.0415H5.14461L5.89461 19.4415C5.9523 20.3618 6.7023 21.104 7.62538 21.104H15.2696C16.1638 21.104 16.9427 20.3618 17.0004 19.4415L17.7792 8.0415H18.9619V5.6665C18.9619 5.01338 18.4427 4.479 17.8081 4.479ZM9.73114 3.2915H13.1927V4.479H9.73114V3.2915ZM15.8754 19.3524C15.8465 19.6493 15.6158 19.9165 15.2985 19.9165H7.62538C7.33691 19.9165 7.0773 19.679 7.04845 19.3524L6.29845 8.0415H16.5965L15.8754 19.3524ZM17.8081 6.854H5.11576V5.6665H17.8081V6.854Z" />
<path d="M9.44267 17.5145L8.86523 9.78857L7.71473 9.87965L8.29217 17.6056L9.44267 17.5145Z" />
<path d="M12.0376 9.82275H10.8838V17.5415H12.0376V9.82275Z" />
<path d="M15.2091 9.87961L14.0586 9.78857L13.4814 17.5145L14.6319 17.6056L15.2091 9.87961Z" />
</svg>
