<svg viewBox="0 0 24 24" xmlns="http://www.w3.org/2000/svg">
<path d="M4.34018 2.92993L2.93018 4.33993L7.29018 8.69993L7.00018 8.99993H3.00018V14.9999H7.00018L12.0002 19.9999V13.4099L16.1802 17.5899C15.5302 18.0799 14.8002 18.4699 14.0002 18.6999V20.7599C15.3402 20.4599 16.5702 19.8399 17.6102 19.0099L19.6602 21.0599L21.0702 19.6499L4.34018 2.92993ZM10.0002 15.1699L7.83018 12.9999H5.00018V10.9999H7.83018L8.71018 10.1199L10.0002 11.4099V15.1699ZM19.0002 11.9999C19.0002 12.8199 18.8502 13.6099 18.5902 14.3399L20.1202 15.8699C20.6802 14.6999 21.0002 13.3899 21.0002 11.9999C21.0002 7.71993 18.0102 4.13993 14.0002 3.22993V5.28993C16.8902 6.14993 19.0002 8.82993 19.0002 11.9999ZM12.0002 3.99993L10.1202 5.87993L12.0002 7.75993V3.99993ZM16.5002 11.9999C16.5002 10.2299 15.4802 8.70993 14.0002 7.96993V9.75993L16.4802 12.2399C16.4902 12.1599 16.5002 12.0799 16.5002 11.9999Z" />
</svg>
