<svg viewBox="0 0 24 24" xmlns="http://www.w3.org/2000/svg">
<path d="M10.0002 4.00009H14.0002V6.00009H10.4002L12.4002 8.00009H20.0002V15.6001L22.0002 17.6001V8.00009C22.0002 6.89009 21.1102 6.00009 20.0002 6.00009H16.0002V4.00009C16.0002 2.89009 15.1102 2.00009 14.0002 2.00009H10.0002C9.01023 2.00009 8.20023 2.70009 8.04023 3.64009L10.0002 5.60009V4.00009ZM3.40023 1.84009L1.99023 3.25009L4.74023 6.00009H4.00023C2.89023 6.00009 2.01023 6.89009 2.01023 8.00009L2.00023 19.0001C2.00023 20.1101 2.89023 21.0001 4.00023 21.0001H19.7402L21.7402 23.0001L23.1502 21.5901L3.40023 1.84009ZM4.00023 19.0001V8.00009H6.74023L17.7402 19.0001H4.00023Z" />
</svg>
